<svg xmlns="http://www.w3.org/2000/svg" viewBox="0 0 800 420" preserveAspectRatio="xMidYMid slice">
<defs>
  <linearGradient id="bg" x1="0" y1="0" x2="1" y2="1"><stop offset="0%" stop-color="#0b1526"/><stop offset="100%" stop-color="#142236"/></linearGradient>
  <filter id="gl"><feGaussianBlur stdDeviation="1.5" result="b"/><feMerge><feMergeNode in="b"/><feMergeNode in="SourceGraphic"/></feMerge></filter>
  <radialGradient id="pu" cx="50%" cy="50%" r="50%"><stop offset="0%" stop-color="#c8102e" stop-opacity="0.7"/><stop offset="100%" stop-color="#c8102e" stop-opacity="0"/></radialGradient>
  <clipPath id="gc"><ellipse cx="388" cy="210" rx="371.4" ry="195"/></clipPath>
</defs>
<rect width="800" height="420" fill="url(#bg)"/>
<ellipse cx="388" cy="210" rx="371.4" ry="195" fill="none" stroke="#fff" stroke-width="0.5" opacity="0.08"/>
<g opacity="0.05" stroke="#fff" stroke-width="0.3" fill="none">
  <ellipse cx="388" cy="210" rx="117.4" ry="61.6"/>
  <ellipse cx="388" cy="210" rx="185.6" ry="97.5"/>
  <ellipse cx="388" cy="210" rx="262.5" ry="137.8"/>
  <ellipse cx="388" cy="210" rx="321.5" ry="168.8"/>
</g>
<g fill="#fff" font-family="Arial" font-size="4" opacity="0.15" text-anchor="middle">
  <text x="388" y="146.4">2.000 km</text>
  <text x="388" y="110.5">5.000 km</text>
  <text x="388" y="70.2">10.000 km</text>
  <text x="388" y="39.2">15.000 km</text>
</g>
<g clip-path="url(#gc)">
  <polygon points="329.3,370.3 331.9,370.8 334.1,371.2 332.1,371.1 331.1,371.2 328.5,371.0 328.3,371.0 326.3,370.7 327.8,370.7 329.7,370.7 328.0,370.3 326.5,370.0 329.3,370.3" fill="#fff" opacity="0.08" stroke="#fff" stroke-width="0.3" stroke-opacity="0.1"/>
  <polygon points="357.4,382.0 360.8,382.1 361.8,382.4 361.7,382.7 361.6,382.7 361.9,382.9 361.9,382.9 359.7,383.0 356.9,382.7 356.2,382.4 356.2,382.2 357.4,382.0" fill="#fff" opacity="0.08" stroke="#fff" stroke-width="0.3" stroke-opacity="0.1"/>
  <polygon points="332.4,368.4 335.4,368.8 338.1,369.3 340.0,369.7 342.0,370.1 342.0,370.3 341.7,370.6 341.3,370.8 340.7,371.0 338.7,371.0 336.2,370.7 334.3,370.4 334.6,370.1 333.8,369.8 332.3,369.4 331.1,369.1 330.1,368.7 329.0,368.4 329.0,368.4 329.5,368.4 330.1,368.2 332.4,368.4" fill="#fff" opacity="0.08" stroke="#fff" stroke-width="0.3" stroke-opacity="0.1"/>
  <polygon points="270.9,369.7 271.3,369.6 269.4,369.0 272.4,369.6 274.9,370.2 275.1,370.5 273.0,370.4 273.0,370.4 270.3,369.9 270.9,369.7" fill="#fff" opacity="0.08" stroke="#fff" stroke-width="0.3" stroke-opacity="0.1"/>
  <polygon points="273.8,371.1 275.7,371.1 275.8,371.2 276.1,371.5 275.1,371.6 275.1,371.6 272.8,371.1 273.8,371.1" fill="#fff" opacity="0.08" stroke="#fff" stroke-width="0.3" stroke-opacity="0.1"/>
  <polygon points="256.9,362.4 258.2,362.5 257.9,362.1 261.9,363.0 261.1,363.0 260.9,363.2 260.2,363.3 260.3,363.6 258.6,363.4 255.7,362.8 255.7,362.8 254.6,362.4 255.9,362.4 256.9,362.4" fill="#fff" opacity="0.08" stroke="#fff" stroke-width="0.3" stroke-opacity="0.1"/>
  <polygon points="275.4,359.9 277.7,360.5 279.4,361.1 280.9,361.5 280.4,361.7 280.2,361.9 278.8,361.9 277.3,361.4 276.8,361.5 276.4,361.7 274.1,361.3 271.9,360.7 270.9,360.2 270.9,360.2 271.1,360.0 272.5,360.1 270.3,359.4 268.5,358.9 264.6,357.7 263.1,357.0 263.5,356.9 265.9,357.5 267.9,358.0 270.5,358.7 273.0,359.3 275.4,359.9" fill="#fff" opacity="0.08" stroke="#fff" stroke-width="0.3" stroke-opacity="0.1"/>
  <polygon points="262.1,351.8 262.1,352.0 260.3,351.6 259.2,351.6 258.9,351.8 258.6,352.0 258.9,352.4 260.1,352.9 261.7,353.4 263.7,354.0 263.5,354.2 262.4,354.2 262.9,354.6 263.3,354.9 264.2,355.5 265.5,356.0 267.8,356.6 269.8,357.1 271.9,357.5 274.3,358.0 276.5,358.5 278.4,359.0 280.5,359.5 282.5,360.0 284.5,360.5 288.7,361.6 290.7,362.1 292.6,362.6 294.7,363.1 297.0,363.7 298.3,364.1 299.2,364.5 298.5,364.7 299.8,365.1 300.8,365.4 301.3,365.9 301.0,366.1 301.0,366.3 301.1,366.6 302.8,367.1 301.8,367.2 300.3,367.2 299.7,367.3 298.6,367.4 301.2,367.9 303.2,368.0 305.6,368.3 308.0,368.6 309.3,369.0 307.7,369.0 308.5,369.3 311.1,369.8 313.6,370.2 316.2,370.5 318.7,370.8 321.6,371.1 323.6,371.2 326.1,371.3 328.7,371.5 331.5,371.7 333.7,371.8 336.5,371.9 339.1,372.1 341.9,372.3 345.0,372.6 347.3,372.9 346.0,372.6 345.3,372.3 344.7,372.0 344.7,371.8 344.5,371.5 346.1,371.5 348.4,371.5 350.9,371.7 349.5,371.4 349.4,371.1 351.4,371.1 352.2,370.9 353.1,370.7 354.4,370.6 355.9,370.5 356.6,370.3 355.0,370.0 353.6,369.8 352.5,369.5 350.6,369.5 349.0,369.6 347.1,369.6 345.6,369.3 343.3,368.7 343.1,368.6 343.9,368.4 345.2,368.2 345.8,368.0 346.4,367.8 346.6,367.5 347.9,367.4 349.3,367.3 350.0,367.3 352.0,367.3 353.7,367.2 355.0,367.1 356.2,367.0 357.3,366.8 358.8,366.6 359.6,366.4 360.6,366.2 360.5,365.9 358.6,365.7 358.6,365.5 359.2,365.3 360.6,365.1 362.1,365.0 363.5,364.8 364.4,364.6 364.8,364.2 365.8,364.1 368.0,364.1 369.1,364.4 371.2,364.4 371.0,364.2 371.7,363.9 373.7,364.0 374.3,364.3 376.5,364.3 378.7,364.2 380.9,364.2 382.9,364.2 383.8,364.5 385.7,364.3 387.5,364.2 389.5,364.1 391.6,364.0 393.5,363.8 395.6,363.7 397.2,363.5 398.5,363.3 399.8,363.4 401.8,363.3 402.8,363.6 403.7,363.9 405.9,363.7 407.0,363.4 409.0,363.2 411.4,363.2 411.8,363.4 413.7,363.1 415.8,363.0 418.0,362.9 419.9,362.9 421.8,362.9 423.7,362.9 424.1,363.1 424.9,363.3 427.1,363.1 429.2,363.0 431.2,363.0 433.2,362.9 435.2,362.7 437.3,362.5 439.4,362.2 441.4,362.0 443.4,361.9 445.3,361.6 447.4,361.1 449.1,360.7 450.7,360.8 450.7,361.0 451.7,361.2 453.7,361.0 454.1,361.2 454.8,361.4 457.1,361.1 458.8,360.7 460.8,360.4 463.5,360.0 465.5,359.7 468.1,359.4 470.1,359.1 472.2,358.8 474.2,358.4 475.5,358.4 478.1,358.0 480.0,357.6 481.6,357.5 483.8,357.1 485.2,356.7 487.5,356.3 489.5,355.9 491.8,355.6 493.7,355.3 495.0,355.3 496.4,355.2 496.9,355.4 495.6,355.9 495.9,356.2 496.0,356.5 497.5,356.5 497.5,356.7 497.8,357.0 499.1,356.9 501.0,356.6 503.9,355.9 504.5,356.1 505.5,356.1 506.5,356.2 507.6,356.2 509.0,356.1 505.7,357.4 504.6,357.8 502.4,358.4 500.1,358.8 497.4,359.4 495.9,359.9 497.4,359.8 495.4,360.3 493.1,360.8 490.7,361.3 490.1,361.7 491.0,361.8 493.2,361.5 495.6,361.0 497.8,360.5 499.9,360.0 502.1,359.6 504.0,359.1 507.0,358.4 508.2,358.2 509.8,358.1 511.5,357.8 513.5,357.5 515.9,356.9 518.1,356.3 520.7,355.7 523.1,355.2 525.1,354.9 527.4,354.3 528.9,354.0 530.6,353.6 531.3,353.7 532.8,353.5 534.5,353.3 535.5,353.3 537.7,352.8 541.7,351.6 540.7,352.0 538.7,352.9 538.6,353.2 539.1,353.3 540.7,353.1 541.3,353.2 542.1,353.2 543.2,353.0 543.7,353.1 543.1,353.6 544.7,353.3 545.6,353.3 547.1,353.1 547.1,353.4 549.6,352.8 552.0,352.1 554.1,351.6 559.5,350.1 559.2,350.4 558.1,351.0 556.3,351.8 553.3,353.3 553.7,353.4 554.2,353.5 555.4,353.4 556.8,353.3 559.0,352.8 561.2,352.3 561.9,352.4 563.6,352.0 562.5,352.6 560.5,353.4 558.5,354.3 559.0,354.5 557.2,355.2 555.5,356.1 554.8,356.7 555.3,356.8 557.5,356.3 559.7,355.8 560.2,356.0 559.0,356.6 557.9,357.2 558.8,357.2 558.5,357.6 557.4,358.1 556.1,358.8 557.0,358.8 557.6,358.9 557.2,359.3 556.3,359.9 556.4,360.1 556.2,360.5 560.0,359.5 563.3,358.5 560.5,359.5 556.6,360.7 552.8,361.8 549.6,362.8 547.1,363.6 546.2,364.2 544.6,365.0 543.8,365.4 541.8,366.3 540.4,366.9 537.7,367.9 534.9,368.8 530.9,369.9 528.1,370.4 524.3,371.3 520.1,372.4 515.6,373.5 511.1,374.6 506.6,375.6 502.8,376.5 499.6,377.2 500.4,377.4 495.8,378.2 491.3,378.9 487.1,379.6 482.7,380.4 478.4,381.2 474.3,381.6 469.3,382.3 464.7,382.8 460.3,383.3 456.6,383.9 452.8,384.3 448.8,384.8 444.4,385.3 439.9,385.7 435.3,386.0 430.9,386.2 427.4,386.3 426.6,386.1 427.1,385.9 427.0,385.6 426.9,385.4 426.9,385.1 430.0,384.8 430.3,384.5 432.8,384.1 432.4,383.9 432.5,383.7 432.9,383.4 432.1,383.2 431.1,383.1 429.5,382.9 427.9,382.8 425.3,382.8 423.5,382.7 421.3,382.6 417.5,382.8 415.5,382.7 418.0,382.4 419.7,382.1 422.6,381.9 421.6,381.6 420.0,381.4 419.1,381.2 418.3,381.0 415.4,381.0 413.3,380.9 411.0,380.8 408.6,380.7 406.2,380.7 403.9,380.6 400.9,380.5 399.4,380.3 396.5,380.2 396.2,380.2 395.2,380.0 393.2,380.2 391.1,380.1 389.6,379.9 388.0,376.6 388.0,376.6 389.6,379.9 389.6,379.9 389.0,380.3 387.5,380.1 387.4,380.1 387.2,380.2 386.9,380.2 386.6,380.3 386.5,380.3 386.4,380.3 386.3,380.3 385.3,380.0 384.0,380.3 383.7,380.3 381.0,380.4 380.5,380.2 380.3,380.1 379.6,379.9 378.0,379.7 377.2,379.4 375.4,379.2 372.8,379.2 370.9,379.0 370.9,378.7 368.2,378.8 365.4,378.7 362.9,378.8 365.2,379.1 366.3,379.3 365.3,379.6 366.5,379.8 364.6,380.0 362.7,380.1 360.8,380.2 359.3,380.4 359.9,380.6 359.4,380.8 360.0,381.1 357.3,380.8 353.9,380.6 353.8,380.4 350.4,380.3 346.7,380.1 344.1,380.0 342.3,380.1 342.4,380.4 342.8,380.6 345.4,381.0 347.3,381.3 349.8,381.6 349.2,381.8 350.0,382.1 349.9,382.3 345.8,382.7 345.3,382.6 344.9,382.4 341.4,382.1 337.9,381.7 338.6,381.5 335.4,381.2 332.0,380.9 328.4,380.6 324.5,380.3 321.5,379.9 319.2,379.8 317.5,379.8 314.7,379.6 311.4,379.2 312.6,379.1 308.8,378.5 305.2,378.1 302.9,377.6 300.2,377.1 296.6,376.4 293.5,375.9 290.3,375.3 289.8,375.1 289.5,374.9 286.7,374.3 286.6,374.0 285.0,373.5 282.7,373.0 282.2,372.6 281.7,372.3 280.4,371.8 279.5,371.4 278.7,371.0 277.6,370.6 274.8,369.9 273.0,369.4 274.1,369.4 272.3,368.8 269.3,368.1 271.5,368.4 274.1,368.8 276.4,369.1 273.9,368.4 276.5,368.7 277.2,368.6 279.1,368.7 278.6,368.4 277.2,367.9 277.5,367.7 278.6,367.7 280.0,367.7 277.0,367.1 274.6,366.7 272.0,366.2 271.3,366.3 268.5,365.9 265.8,365.3 260.5,364.2 261.6,364.3 262.2,364.2 262.1,363.9 263.5,364.0 265.9,364.3 268.4,364.8 269.2,364.7 268.8,364.4 268.0,363.9 267.8,363.6 269.8,363.9 270.0,363.7 265.6,362.4 268.9,363.1 270.7,363.2 270.9,363.0 273.9,363.6 275.0,363.5 276.5,363.7 278.7,363.9 277.0,363.4 275.3,362.8 278.3,363.4 278.9,363.2 280.9,363.5 283.4,363.9 283.9,363.8 283.6,363.5 283.2,363.1 283.6,362.9 284.4,362.8 285.0,362.6 284.9,362.4 284.0,362.0 282.2,361.4 280.1,360.9 277.8,360.4 275.6,359.8 273.3,359.3 271.4,358.8 269.5,358.2 267.8,357.7 266.7,357.2 265.4,356.6 263.9,356.1 261.8,355.4 259.9,354.8 258.7,354.2 258.3,353.9 257.7,353.4 257.5,353.1 257.6,352.8 256.5,352.2 256.3,351.9 256.4,351.6 257.8,351.7 257.7,351.4 258.2,351.2 259.2,351.2 259.6,351.0 259.5,350.7 260.5,350.7 262.4,351.2 262.9,351.6 262.1,351.8" fill="#fff" opacity="0.08" stroke="#fff" stroke-width="0.3" stroke-opacity="0.1"/>
  <polygon points="212.0,333.4 216.4,334.9 220.0,335.9 220.5,336.5 218.7,336.2 216.7,335.4 217.2,336.0 216.4,336.2 214.0,335.6 211.6,334.8 209.1,334.1 204.9,332.6 201.3,331.2 195.2,328.6 197.4,329.3 202.2,331.2 205.9,332.4 205.6,331.8 204.2,330.7 204.9,330.4 206.7,330.9 206.7,330.9 208.8,331.9 212.0,333.4" fill="#fff" opacity="0.08" stroke="#fff" stroke-width="0.3" stroke-opacity="0.1"/>
  <polygon points="224.8,333.1 227.7,334.1 227.8,334.5 225.5,334.4 223.6,333.6 222.9,333.9 220.6,333.0 221.8,332.7 224.4,333.4 224.8,333.1" fill="#fff" opacity="0.08" stroke="#fff" stroke-width="0.3" stroke-opacity="0.1"/>
  <polygon points="571.2,327.3 567.6,328.2 568.8,327.3 570.1,326.6 570.8,326.2 571.5,326.4 573.3,326.1 572.9,326.4 571.2,327.3" fill="#fff" opacity="0.08" stroke="#fff" stroke-width="0.3" stroke-opacity="0.1"/>
  <polygon points="723.4,244.7 723.9,245.9 724.8,244.4 726.2,242.2 726.8,242.0 723.9,250.5 722.4,253.2 719.6,259.0 720.1,257.3 716.8,262.5 716.7,262.2 716.2,262.4 718.4,257.1 720.2,252.9 721.7,247.8 722.8,244.8 723.4,244.7" fill="#fff" opacity="0.08" stroke="#fff" stroke-width="0.3" stroke-opacity="0.1"/>
  <polygon points="689.3,314.2 686.7,315.8 691.2,311.6 698.8,304.8 702.8,300.2 708.2,294.9 716.8,286.0 727.3,273.8 729.0,272.1" fill="#fff" opacity="0.08" stroke="#fff" stroke-width="0.3" stroke-opacity="0.1"/>
  <polyline points="667.0,89.9 660.7,85.9" fill="none" stroke="#fff" stroke-width="0.3" opacity="0.1"/>
  <polygon points="601.3,66.4 606.5,68.5 609.7,70.3 612.9,72.3 614.9,73.8 615.8,74.9 614.8,74.7 611.5,73.1 609.0,71.5 607.5,70.4 606.5,69.7 603.1,67.6 601.3,66.4" fill="#fff" opacity="0.08" stroke="#fff" stroke-width="0.3" stroke-opacity="0.1"/>
  <polygon points="441.1,30.8 436.9,30.3 440.2,30.2 449.2,31.0 456.6,31.8 456.8,32.1 450.8,31.7 444.8,31.0 441.1,30.8" fill="#fff" opacity="0.08" stroke="#fff" stroke-width="0.3" stroke-opacity="0.1"/>
  <polygon points="426.7,30.0 435.7,30.5 436.8,30.8 429.8,30.4 425.4,30.2 417.2,29.9 417.7,29.7 426.7,30.0" fill="#fff" opacity="0.08" stroke="#fff" stroke-width="0.3" stroke-opacity="0.1"/>
  <polygon points="416.5,29.6 417.7,29.7 417.2,29.9 414.4,29.8 416.5,29.6" fill="#fff" opacity="0.08" stroke="#fff" stroke-width="0.3" stroke-opacity="0.1"/>
  <polygon points="561.7,55.6 565.4,56.8 566.4,57.5 564.7,57.1 561.7,55.6" fill="#fff" opacity="0.08" stroke="#fff" stroke-width="0.3" stroke-opacity="0.1"/>
  <polygon points="561.2,56.6 563.5,56.8 565.4,57.5 567.5,58.2 567.4,58.4 564.0,57.8 561.2,56.6" fill="#fff" opacity="0.08" stroke="#fff" stroke-width="0.3" stroke-opacity="0.1"/>
  <polygon points="565.8,288.6 565.5,290.2 566.0,290.6 565.4,291.4 564.7,292.0 564.1,291.5 563.3,292.1 563.4,293.0 562.8,293.7 561.8,294.3 561.0,295.5 559.0,297.6 556.4,300.0 553.0,303.1 550.6,305.4 548.2,307.3 545.5,308.3 542.4,309.6 540.9,309.7 538.8,309.9 538.4,309.4 539.0,308.3 538.6,307.6 538.9,306.7 540.1,305.6 541.6,305.0 541.9,304.6 544.0,303.1 544.8,302.2 544.5,301.8 544.4,301.1 544.8,299.9 546.3,298.9 547.2,297.9 548.8,297.4 550.6,296.5 551.9,295.9 553.2,295.5 555.4,294.1 558.2,292.5 559.5,291.4 559.3,291.0 560.5,290.7 562.6,289.1 563.0,288.2 564.2,287.2 565.0,287.5 565.5,287.8 565.8,288.6" fill="#fff" opacity="0.08" stroke="#fff" stroke-width="0.3" stroke-opacity="0.1"/>
  <polygon points="673.5,130.0 675.4,130.9 672.8,128.1 673.5,128.1 673.9,127.7 675.7,129.1 678.3,130.7 679.7,131.5 679.6,131.1 682.2,132.6 684.2,134.4 686.0,135.4 685.8,133.6 686.1,132.8 686.3,132.0 687.5,133.2 688.8,133.4 692.2,135.9 690.5,133.7 691.4,133.9 690.2,132.5 694.2,135.8 695.2,135.7 695.8,135.6 697.6,136.2 700.6,138.6 703.1,141.1 706.0,144.3 708.8,146.8 712.7,151.6 714.8,154.7 718.6,160.6 720.7,163.9 723.3,168.8 726.3,175.9 727.7,181.2 729.5,187.2 730.3,191.3 731.5,197.8 731.9,202.1 732.3,207.8 732.4,212.8 732.5,214.9 731.9,218.4 730.8,220.7 729.5,225.0 728.7,228.3 727.5,232.0 727.1,230.4 726.5,230.3 727.2,226.8 726.4,228.8 724.6,234.5 723.8,234.1 723.3,234.0 722.7,234.4 721.8,234.2 721.6,231.8 722.0,228.1 722.0,225.8 721.6,224.6 720.5,225.6 721.0,222.6 720.9,219.4 720.2,223.7 719.2,226.1 719.9,222.5 720.1,219.5 720.5,216.5 720.2,213.2 719.6,218.7 718.9,221.4 718.3,225.7 717.6,225.1 717.7,222.7 717.0,220.6 716.5,219.9 716.6,218.6 715.2,218.4 714.5,219.5 713.4,219.3 711.4,222.8 709.9,226.4 708.4,229.6 707.2,230.9 705.6,234.4 704.4,236.6 703.8,238.8 703.0,240.8 701.8,242.1 700.8,243.3 699.7,243.9 698.5,245.2 697.5,246.3 696.1,249.0 695.7,249.2 694.6,250.8 693.6,252.5 692.5,253.3 691.4,254.1 690.4,253.4 689.8,253.5 690.4,251.7 691.3,250.6 691.7,249.7 692.0,248.6 692.7,246.2 692.9,244.6 692.7,242.2 692.8,240.8 693.0,239.0 692.7,237.7 692.7,236.9 692.2,236.4 692.2,234.3 691.4,233.0 691.3,232.0 691.9,232.5 691.4,230.5 692.1,230.5 692.5,231.1 692.4,229.7 691.7,228.3 691.6,227.6 691.2,227.2 691.2,225.5 691.4,224.5 691.4,222.9 691.1,221.5 691.3,218.9 691.7,220.8 691.9,218.2 692.6,215.9 692.9,213.9 693.4,211.6 693.8,210.5 694.1,210.3 694.5,207.9 695.0,206.4 694.9,205.6 695.1,204.8 695.5,203.8 696.0,201.0 695.9,198.7 695.5,196.8 695.2,194.2 694.7,193.1 694.0,191.6 693.1,188.0 694.5,189.3 694.4,187.9 693.6,187.4 693.0,185.5 693.4,185.1 692.2,182.9 691.5,180.5 690.9,179.0 690.6,177.5 690.1,176.7 690.4,176.1 689.9,175.4 689.6,174.1 689.3,172.6 690.1,172.1 691.2,172.3 691.2,170.9 691.2,169.6 690.2,168.7 688.3,165.6 687.6,163.9 687.1,163.7 685.6,161.3 684.4,159.0 684.4,158.0 683.4,155.5 682.1,154.4 681.9,155.4 681.1,153.8 681.2,152.7 681.8,152.3 681.7,150.8 681.2,149.9 681.4,149.0 680.0,146.8 679.8,146.0 679.0,145.0 679.8,144.9 681.6,146.9 683.1,148.9 683.6,149.8 684.5,150.5 686.1,152.5 687.7,154.7 688.4,155.2 689.2,154.6 689.4,153.4 689.8,153.0 690.7,152.6 690.5,151.9 690.7,151.2 691.4,151.6 691.3,150.0 689.5,147.1 687.7,145.1 686.0,143.3 684.1,141.5 681.1,138.5 679.8,137.7 678.8,136.8 677.1,135.7 674.5,133.6 673.5,132.6 672.7,132.2 670.5,130.4 668.3,128.6 667.3,127.9 665.3,126.1 666.3,126.4 668.3,127.5 668.1,127.1 669.5,127.9 670.4,128.0 672.2,129.1 673.5,130.0" fill="#fff" opacity="0.08" stroke="#fff" stroke-width="0.3" stroke-opacity="0.1"/>
  <polygon points="580.8,67.6 580.3,67.1 585.1,69.2 585.0,69.7 582.0,68.2 580.8,67.6" fill="#fff" opacity="0.08" stroke="#fff" stroke-width="0.3" stroke-opacity="0.1"/>
  <polygon points="682.7,178.2 682.6,179.2 681.2,180.4 681.0,178.0 681.6,177.6 682.2,177.5 682.7,178.2" fill="#fff" opacity="0.08" stroke="#fff" stroke-width="0.3" stroke-opacity="0.1"/>
  <polygon points="586.7,70.7 589.3,71.9 592.7,73.6 593.4,74.0 591.3,73.4 587.9,71.7 586.7,71.0 586.7,70.7" fill="#fff" opacity="0.08" stroke="#fff" stroke-width="0.3" stroke-opacity="0.1"/>
  <polygon points="580.1,68.1 581.9,68.7 583.2,70.0 582.1,70.1 579.9,69.2 580.8,68.8 580.1,68.1" fill="#fff" opacity="0.08" stroke="#fff" stroke-width="0.3" stroke-opacity="0.1"/>
  <polygon points="682.5,170.0 683.0,172.4 682.8,172.4 682.1,171.4 680.9,169.1 679.8,166.1 679.3,165.4 678.6,162.9 678.2,161.3 677.8,160.3 677.9,159.7 678.7,161.1 680.0,164.4 680.8,166.9 682.5,170.0" fill="#fff" opacity="0.08" stroke="#fff" stroke-width="0.3" stroke-opacity="0.1"/>
  <polygon points="678.5,179.5 679.1,179.3 679.0,177.8 679.8,178.2 679.9,181.0 679.9,182.7 679.8,183.8 679.0,181.9 679.1,180.8 678.5,179.5" fill="#fff" opacity="0.08" stroke="#fff" stroke-width="0.3" stroke-opacity="0.1"/>
  <polygon points="678.7,169.0 679.8,170.4 680.4,174.3 680.1,176.8 679.4,176.0 679.1,173.9 679.6,173.2 679.5,171.7 678.7,169.0" fill="#fff" opacity="0.08" stroke="#fff" stroke-width="0.3" stroke-opacity="0.1"/>
  <polygon points="586.6,72.1 587.2,72.1 590.2,73.9 592.0,75.1 592.9,75.9 591.6,75.4 589.9,74.3 586.8,72.4 586.6,72.1" fill="#fff" opacity="0.08" stroke="#fff" stroke-width="0.3" stroke-opacity="0.1"/>
  <polygon points="596.3,77.7 597.7,78.3 599.2,79.3 599.7,80.0 598.8,79.7 597.3,78.4 596.3,77.7" fill="#fff" opacity="0.08" stroke="#fff" stroke-width="0.3" stroke-opacity="0.1"/>
  <polygon points="672.6,194.7 673.9,191.4 673.5,190.1 675.0,187.6 676.1,188.2 677.0,185.6 678.4,184.5 678.5,187.5 677.5,188.8 677.0,190.6 676.4,192.4 675.6,193.8 674.4,195.2 673.8,196.3 673.6,197.3 671.8,199.8 671.1,199.3 670.3,200.7 669.8,197.6 670.7,195.6 671.7,194.9 672.1,194.3 672.6,194.7" fill="#fff" opacity="0.08" stroke="#fff" stroke-width="0.3" stroke-opacity="0.1"/>
  <polygon points="665.5,137.7 668.1,140.3 666.1,139.1 664.9,138.0 663.6,136.9 664.1,136.8 665.5,137.7" fill="#fff" opacity="0.08" stroke="#fff" stroke-width="0.3" stroke-opacity="0.1"/>
  <polygon points="603.1,81.7 604.9,82.6 605.6,83.4 605.4,83.9 603.5,83.7 602.5,83.2 603.1,83.2 602.5,82.6 602.4,82.0 601.3,81.0 603.1,81.7" fill="#fff" opacity="0.08" stroke="#fff" stroke-width="0.3" stroke-opacity="0.1"/>
  <polygon points="616.3,90.9 618.8,92.5 620.5,93.2 623.6,95.1 626.5,96.8 628.5,98.3 630.5,100.1 631.5,101.3 630.1,100.6 627.4,98.4 625.1,96.8 622.7,95.8 622.1,95.3 623.6,95.8 621.1,94.1 618.7,92.9 615.1,91.0 613.4,90.6 610.8,89.0 610.5,88.6 612.6,89.3 616.3,90.9" fill="#fff" opacity="0.08" stroke="#fff" stroke-width="0.3" stroke-opacity="0.1"/>
  <polygon points="666.4,150.2 667.5,151.7 667.6,152.9 666.7,152.5 665.8,150.2 666.4,150.2" fill="#fff" opacity="0.08" stroke="#fff" stroke-width="0.3" stroke-opacity="0.1"/>
  <polygon points="662.4,142.2 664.0,142.7 663.9,144.0 664.5,145.7 665.2,147.1 665.7,148.6 664.2,147.1 662.9,144.2 662.4,142.2" fill="#fff" opacity="0.08" stroke="#fff" stroke-width="0.3" stroke-opacity="0.1"/>
  <polygon points="607.6,86.7 610.0,87.8 608.7,87.7 608.3,87.9 609.1,88.7 610.0,89.7 611.9,91.3 609.9,90.3 608.6,89.2 608.0,88.6 607.0,87.7 606.8,87.1 606.2,86.5 607.6,86.7" fill="#fff" opacity="0.08" stroke="#fff" stroke-width="0.3" stroke-opacity="0.1"/>
  <polygon points="652.1,130.4 656.2,132.3 656.2,130.8 651.7,127.1 647.7,123.3 645.8,121.2 645.0,119.6 644.5,118.3 642.5,115.9 640.3,112.5 637.0,108.6 636.7,107.5 636.7,106.7 638.3,107.2 635.1,103.6 636.2,103.7 639.6,106.5 641.3,106.9 640.7,105.5 642.5,105.4 640.3,103.7 642.2,104.5 640.0,102.6 641.8,103.8 639.6,101.3 641.1,102.2 643.8,104.3 643.7,104.6 646.3,106.9 649.0,109.6 649.1,110.7 648.8,111.3 647.2,111.2 649.5,114.1 652.7,116.9 655.4,119.2 657.6,120.3 660.6,123.1 661.3,124.3 663.4,127.0 662.5,127.8 663.9,130.1 665.2,131.3 667.4,134.7 664.3,132.0 662.3,129.8 659.5,128.5 657.8,128.2 658.8,131.6 659.8,133.4 659.5,135.5 661.3,137.0 662.0,138.1 661.3,138.0 660.2,137.2 659.8,138.2 657.4,135.0 656.4,133.4 655.8,133.1 657.9,136.6 656.8,136.5 657.5,138.3 656.7,138.4 654.2,134.9 652.6,133.2 651.3,130.1 652.1,130.4" fill="#fff" opacity="0.08" stroke="#fff" stroke-width="0.3" stroke-opacity="0.1"/>
  <polygon points="656.3,146.2 659.3,149.6 660.3,151.5 660.5,153.2 661.5,156.8 662.2,158.9 663.9,160.5 665.4,160.2 664.2,158.3 662.5,153.7 663.6,154.7 663.5,155.4 665.0,157.3 666.3,159.9 668.6,160.2 669.5,161.3 671.6,161.5 673.0,162.8 673.8,164.6 673.1,164.7 671.3,162.1 672.4,164.9 671.9,164.9 671.1,163.9 670.0,164.3 668.0,162.3 668.8,164.3 671.2,166.3 674.0,169.0 674.3,170.6 673.8,170.9 672.0,168.6 670.1,167.0 670.2,167.9 668.9,167.2 667.5,165.2 665.8,163.4 662.5,159.7 661.5,158.6 659.5,155.6 659.8,154.5 659.3,152.1 658.4,149.5 655.9,146.3 656.3,146.2" fill="#fff" opacity="0.08" stroke="#fff" stroke-width="0.3" stroke-opacity="0.1"/>
  <polygon points="653.5,139.2 655.8,140.7 656.1,141.7 657.8,143.0 658.7,143.0 659.3,143.8 658.1,143.7 655.2,142.2 653.0,140.5 651.6,139.2 653.0,139.9 652.5,138.8 653.5,139.2" fill="#fff" opacity="0.08" stroke="#fff" stroke-width="0.3" stroke-opacity="0.1"/>
  <polygon points="669.5,198.0 668.7,200.0 667.1,199.8 665.1,200.5 664.0,200.1 662.5,199.9 661.2,199.3 658.9,198.1 657.2,198.0 655.8,197.0 654.6,196.2 653.1,196.6 651.6,196.0 650.2,196.2 648.0,196.0 647.2,195.3 647.8,194.3 649.2,192.1 651.1,192.3 652.6,192.2 653.5,192.0 655.6,192.3 656.3,190.5 657.8,190.3 659.3,190.8 660.4,190.3 661.3,192.5 662.1,192.1 662.4,191.5 663.4,192.5 664.4,192.9 665.0,191.8 666.1,192.1 667.6,194.9 669.5,198.0" fill="#fff" opacity="0.08" stroke="#fff" stroke-width="0.3" stroke-opacity="0.1"/>
  <polygon points="659.6,160.8 661.2,160.1 661.8,162.7 663.3,164.6 665.1,166.1 666.5,169.3 668.4,171.2 671.2,174.8 670.6,174.5 671.2,177.6 670.1,177.2 669.9,178.5 669.2,178.8 669.5,181.8 668.6,181.6 668.5,182.9 668.0,184.3 665.8,182.0 665.2,182.5 663.7,181.8 662.2,180.5 660.7,178.6 659.7,176.3 660.4,175.6 660.2,173.8 658.7,172.0 658.3,170.8 657.9,168.2 656.3,165.5 654.9,163.5 654.1,162.2 652.7,159.6 651.0,157.1 649.0,154.9 648.8,154.1 649.7,153.9 650.7,154.4 651.0,153.6 651.2,152.4 652.1,153.2 652.6,154.6 653.6,155.0 654.7,157.0 656.8,159.6 658.6,159.7 659.6,160.8" fill="#fff" opacity="0.08" stroke="#fff" stroke-width="0.3" stroke-opacity="0.1"/>
  <polygon points="637.3,133.6 638.9,134.3 640.3,134.9 643.1,136.9 640.9,136.2 642.7,137.9 644.2,138.3 645.7,139.5 645.5,141.1 644.0,140.7 642.4,139.4 641.9,140.0 643.2,141.2 643.6,142.1 645.6,144.4 645.1,144.3 642.6,142.3 641.4,140.7 639.9,139.1 640.6,139.0 639.1,137.1 637.8,136.1 636.9,134.7 635.0,133.8 635.2,132.8 636.4,133.3 637.3,133.6" fill="#fff" opacity="0.08" stroke="#fff" stroke-width="0.3" stroke-opacity="0.1"/>
  <polygon points="631.8,215.8 630.8,217.4 629.5,216.7 628.0,214.5 627.0,211.0 628.4,211.0 629.7,211.5 631.3,212.6 632.1,214.6 631.8,215.8" fill="#fff" opacity="0.08" stroke="#fff" stroke-width="0.3" stroke-opacity="0.1"/>
  <polygon points="171.5,231.1 170.0,230.2 169.7,229.8 170.4,229.7 170.6,228.9 171.7,229.5 172.0,229.8 171.5,231.1" fill="#fff" opacity="0.08" stroke="#fff" stroke-width="0.3" stroke-opacity="0.1"/>
  <polygon points="635.3,136.0 636.5,137.1 638.5,138.6 639.5,139.6 638.4,139.9 637.5,139.1 636.6,138.2 634.9,137.2 634.1,136.1 636.0,137.2 632.7,134.6 635.3,136.0" fill="#fff" opacity="0.08" stroke="#fff" stroke-width="0.3" stroke-opacity="0.1"/>
  <polygon points="642.6,147.9 645.6,151.8 643.7,149.9 641.8,147.6 639.7,145.5 636.9,143.1 638.7,143.9 640.6,145.9 642.6,147.9" fill="#fff" opacity="0.08" stroke="#fff" stroke-width="0.3" stroke-opacity="0.1"/>
  <polygon points="633.4,137.9 633.6,137.2 632.9,136.0 634.0,136.5 635.6,138.0 637.0,139.6 635.8,139.1 634.5,138.3 633.4,137.9" fill="#fff" opacity="0.08" stroke="#fff" stroke-width="0.3" stroke-opacity="0.1"/>
  <polygon points="628.5,130.6 631.1,131.5 631.4,132.6 632.2,133.0 633.6,133.3 634.7,134.5 632.9,133.7 633.2,134.2 631.8,133.8 631.3,132.7 630.3,132.3 629.0,132.6 627.9,130.7 628.5,130.6" fill="#fff" opacity="0.08" stroke="#fff" stroke-width="0.3" stroke-opacity="0.1"/>
  <polygon points="630.8,137.1 633.2,138.7 632.4,138.9 631.0,138.9 630.2,137.3 630.8,137.1" fill="#fff" opacity="0.08" stroke="#fff" stroke-width="0.3" stroke-opacity="0.1"/>
  <polygon points="617.0,131.1 617.0,130.3 615.9,129.5 616.5,129.6 617.8,130.4 619.3,130.5 621.8,132.0 623.3,133.4 625.6,134.6 627.4,135.2 627.1,134.3 626.3,133.4 626.2,131.7 627.8,132.5 628.0,132.2 629.3,132.9 629.0,133.8 628.0,133.9 629.3,134.8 628.4,135.3 629.8,137.2 629.7,137.8 628.6,137.2 627.6,136.3 627.3,136.6 628.4,137.3 627.4,137.5 626.5,137.2 624.1,136.1 624.5,135.8 620.4,133.8 617.6,132.2 617.0,131.1" fill="#fff" opacity="0.08" stroke="#fff" stroke-width="0.3" stroke-opacity="0.1"/>
  <polygon points="170.8,210.4 170.2,210.5 169.2,209.5 168.4,208.8 168.8,207.9 169.2,207.9 170.2,209.0 170.8,209.8 170.8,210.4" fill="#fff" opacity="0.08" stroke="#fff" stroke-width="0.3" stroke-opacity="0.1"/>
  <polygon points="157.6,195.6 157.1,195.5 156.8,194.4 156.9,193.0 157.3,192.8 157.8,193.3 157.9,193.7 158.4,194.8 158.5,195.9 158.3,196.6 157.6,195.6" fill="#fff" opacity="0.08" stroke="#fff" stroke-width="0.3" stroke-opacity="0.1"/>
  <polygon points="164.6,198.2 165.3,199.6 165.7,199.5 166.5,200.5 166.8,201.8 167.1,202.1 166.9,203.0 167.5,203.7 167.1,204.1 167.6,204.8 167.8,206.1 166.8,206.3 166.5,205.3 165.9,204.8 165.6,204.2 165.2,204.3 164.7,203.9 164.8,203.3 164.2,203.1 162.9,203.7 162.8,203.1 163.1,202.5 162.6,201.3 162.0,200.8 161.5,199.8 160.7,199.5 160.6,198.2 161.1,197.8 161.9,199.3 162.6,200.5 163.2,200.6 163.3,199.2 163.9,198.6 163.4,197.4 164.1,197.3 164.6,198.2" fill="#fff" opacity="0.08" stroke="#fff" stroke-width="0.3" stroke-opacity="0.1"/>
  <polygon points="625.2,149.7 626.6,151.8 626.2,152.8 624.2,151.7 623.0,150.3 621.8,148.1 621.6,147.2 622.4,147.3 623.7,148.6 625.2,149.7" fill="#fff" opacity="0.08" stroke="#fff" stroke-width="0.3" stroke-opacity="0.1"/>
  <polygon points="268.9,66.4 269.3,66.2 270.7,65.9 271.2,66.0 272.7,65.9 272.7,66.0 272.3,66.2 273.0,66.2 272.9,66.3 272.6,66.4 270.5,66.8 269.5,67.0 268.4,67.2 266.5,67.4 266.5,67.4 267.8,66.8 268.9,66.4" fill="#fff" opacity="0.08" stroke="#fff" stroke-width="0.3" stroke-opacity="0.1"/>
  <polygon points="274.7,66.1 276.1,65.7 277.3,65.5 278.0,65.4 278.2,65.4 277.9,65.6 276.1,66.0 274.6,66.2 274.7,66.1" fill="#fff" opacity="0.08" stroke="#fff" stroke-width="0.3" stroke-opacity="0.1"/>
  <polygon points="278.9,65.4 278.8,65.4 281.4,64.8 281.3,64.9 278.9,65.4" fill="#fff" opacity="0.08" stroke="#fff" stroke-width="0.3" stroke-opacity="0.1"/>
  <polygon points="283.3,64.5 283.5,64.4 283.8,64.3 285.5,63.9 286.5,63.9 286.8,63.9 285.8,64.2 285.3,64.3 283.3,64.5" fill="#fff" opacity="0.08" stroke="#fff" stroke-width="0.3" stroke-opacity="0.1"/>
  <polygon points="292.5,62.9 292.8,62.7 294.8,62.5 294.6,62.5 294.1,62.7 293.0,63.0 292.5,62.9" fill="#fff" opacity="0.08" stroke="#fff" stroke-width="0.3" stroke-opacity="0.1"/>
  <polygon points="163.1,183.6 162.8,184.8 163.6,185.9 163.5,186.7 163.1,188.9 162.9,190.5 163.2,191.0 163.4,192.1 162.9,192.5 163.5,193.6 163.6,195.3 163.2,195.5 162.4,194.9 161.7,194.0 161.2,192.9 159.8,191.1 161.2,191.1 161.3,190.1 160.9,189.1 161.1,188.1 161.8,186.9 161.3,186.2 161.2,184.4 161.3,183.7 160.8,181.6 160.9,180.8 161.6,180.9 161.1,179.5 159.8,179.3 159.5,178.7 159.0,178.9 158.6,178.4 158.5,177.6 159.4,177.9 160.1,177.6 160.8,177.9 161.4,178.3 162.0,179.2 162.3,179.4 162.7,180.7 163.1,181.8 163.1,183.6" fill="#fff" opacity="0.08" stroke="#fff" stroke-width="0.3" stroke-opacity="0.1"/>
  <polygon points="166.3,184.9 166.1,184.7 166.9,183.4 167.1,182.4 168.4,181.6 168.5,182.1 167.3,183.9 166.3,184.9" fill="#fff" opacity="0.08" stroke="#fff" stroke-width="0.3" stroke-opacity="0.1"/>
  <polygon points="605.7,126.9 608.4,128.4 606.8,128.4 605.0,127.9 601.6,126.0 598.5,124.0 598.8,123.5 600.6,124.4 605.7,126.9" fill="#fff" opacity="0.08" stroke="#fff" stroke-width="0.3" stroke-opacity="0.1"/>
  <polygon points="171.2,179.9 170.2,178.7 170.9,178.0 171.3,178.5 171.6,179.4 171.2,179.9" fill="#fff" opacity="0.08" stroke="#fff" stroke-width="0.3" stroke-opacity="0.1"/>
  <polygon points="171.7,180.9 170.3,181.9 170.4,181.4 171.4,180.6 171.8,179.4 172.0,179.2 171.7,180.9" fill="#fff" opacity="0.08" stroke="#fff" stroke-width="0.3" stroke-opacity="0.1"/>
  <polygon points="551.0,99.2 551.6,99.1 554.5,100.1 554.5,100.5 556.2,101.3 558.4,101.9 558.9,102.7 557.6,102.5 554.8,101.5 553.9,100.8 551.9,100.1 551.0,99.2" fill="#fff" opacity="0.08" stroke="#fff" stroke-width="0.3" stroke-opacity="0.1"/>
  <polygon points="528.6,212.7 527.5,214.5 527.8,214.9 527.9,215.1 526.0,217.2 524.8,217.3 524.0,216.4 525.0,215.8 525.2,215.8 525.3,214.9 526.9,214.3 528.6,212.7" fill="#fff" opacity="0.08" stroke="#fff" stroke-width="0.3" stroke-opacity="0.1"/>
  <polygon points="502.1,222.4 503.7,222.9 505.9,222.0 507.9,221.6 507.9,222.1 509.3,221.3 509.1,222.3 505.1,223.9 505.1,223.4 501.6,223.9 502.1,222.4" fill="#fff" opacity="0.08" stroke="#fff" stroke-width="0.3" stroke-opacity="0.1"/>
  <polygon points="476.4,220.5 474.8,224.1 475.2,225.2 474.0,227.5 471.3,226.8 469.3,226.9 463.9,226.2 465.0,223.8 469.7,223.0 473.6,221.6 476.4,220.5" fill="#fff" opacity="0.08" stroke="#fff" stroke-width="0.3" stroke-opacity="0.1"/>
  <polygon points="451.7,209.8 454.5,213.8 452.9,221.5 450.8,221.7 448.1,224.0 446.5,222.9 447.8,215.6 446.8,211.9 449.5,212.0 451.7,209.8" fill="#fff" opacity="0.08" stroke="#fff" stroke-width="0.3" stroke-opacity="0.1"/>
  <polygon points="528.3,90.8 531.3,91.3 532.2,91.2 535.3,91.9 539.7,93.5 544.0,95.8 550.3,97.9 550.7,98.7 548.8,98.5 553.0,100.8 556.8,102.6 559.1,104.1 559.2,103.1 565.3,104.8 567.7,105.9 567.5,106.4 564.5,105.6 564.9,106.3 563.7,106.5 561.1,105.1 558.3,104.1 554.9,102.6 551.5,101.4 546.6,98.7 544.9,97.5 537.7,95.8 537.6,95.1 531.5,93.2 529.2,92.5 524.5,91.7 521.9,91.8 519.3,91.3 516.3,90.2 518.6,89.7 520.8,89.7 525.6,90.8 528.3,90.8" fill="#fff" opacity="0.08" stroke="#fff" stroke-width="0.3" stroke-opacity="0.1"/>
  <polygon points="452.2,203.8 451.7,208.7 449.4,207.5 447.4,203.1 447.6,200.8 449.8,198.7 452.2,203.8" fill="#fff" opacity="0.08" stroke="#fff" stroke-width="0.3" stroke-opacity="0.1"/>
  <polygon points="503.3,88.0 502.1,87.3 499.4,86.8 501.6,86.4 505.9,87.7 510.5,88.5 512.4,90.0 516.5,90.6 519.1,91.7 516.8,91.8 513.7,91.3 511.1,90.3 506.9,90.1 504.3,89.9 504.3,88.7 503.3,88.0" fill="#fff" opacity="0.08" stroke="#fff" stroke-width="0.3" stroke-opacity="0.1"/>
  <polygon points="224.5,160.9 224.6,161.8 225.3,162.5 223.9,162.8 223.5,162.6 223.8,160.8 224.5,160.0 225.6,159.8 224.5,160.9" fill="#fff" opacity="0.08" stroke="#fff" stroke-width="0.3" stroke-opacity="0.1"/>
  <polygon points="232.8,157.8 232.4,157.4 232.5,155.9 233.3,154.4 233.8,154.5 233.9,155.9 233.3,157.4 232.8,157.8" fill="#fff" opacity="0.08" stroke="#fff" stroke-width="0.3" stroke-opacity="0.1"/>
  <polygon points="253.4,102.7 253.8,102.2 257.7,100.6 259.2,100.3 261.7,99.4 262.8,99.2 265.1,98.3 267.2,97.9 267.8,98.0 265.4,98.9 264.0,99.5 262.2,100.3 260.6,100.6 258.4,101.2 255.7,102.2 253.4,102.7" fill="#fff" opacity="0.08" stroke="#fff" stroke-width="0.3" stroke-opacity="0.1"/>
  <polygon points="241.7,158.6 238.6,159.9 240.1,159.7 240.1,160.5 238.8,161.0 238.8,162.1 239.9,161.9 239.9,163.1 237.6,164.4 238.8,164.5 237.5,165.7 236.1,167.2 233.4,168.7 232.9,168.5 232.7,167.6 235.1,166.1 235.2,165.7 231.8,166.6 231.4,166.1 233.2,165.7 233.0,164.5 232.0,163.9 230.5,162.4 231.2,161.7 232.6,161.5 233.0,160.7 235.4,160.1 240.8,157.8 242.9,157.1 244.7,157.0 244.9,157.4 244.0,157.8 241.7,158.6" fill="#fff" opacity="0.08" stroke="#fff" stroke-width="0.3" stroke-opacity="0.1"/>
  <polygon points="284.2,94.6 284.2,94.6 284.2,94.6 284.2,94.6 282.8,95.3 280.2,95.0 276.5,95.7 277.2,95.4 279.5,94.9 281.4,94.7 283.1,94.3 284.7,94.2 285.4,94.3 284.2,94.6" fill="#fff" opacity="0.08" stroke="#fff" stroke-width="0.3" stroke-opacity="0.1"/>
  <polygon points="487.7,89.3 489.9,88.2 492.3,89.4 497.2,89.6 497.6,88.7 499.4,88.6 499.6,89.3 503.0,89.8 501.3,90.1 498.6,90.1 496.1,90.3 493.7,90.3 490.2,90.4 488.9,91.1 485.3,91.3 482.4,90.7 482.0,91.1 480.8,90.8 481.9,90.5 483.6,90.0 486.1,89.8 487.7,89.3" fill="#fff" opacity="0.08" stroke="#fff" stroke-width="0.3" stroke-opacity="0.1"/>
  <polygon points="344.8,164.0 336.0,166.1 331.0,166.2 336.8,163.2 337.5,160.8 344.3,158.6 348.1,157.4 351.4,157.1 354.3,158.3 350.8,159.9 350.0,161.5 344.8,164.0" fill="#fff" opacity="0.08" stroke="#fff" stroke-width="0.3" stroke-opacity="0.1"/>
  <polygon points="429.7,156.5 429.2,158.2 424.2,156.7 422.9,155.8 427.5,155.4 429.7,156.5" fill="#fff" opacity="0.08" stroke="#fff" stroke-width="0.3" stroke-opacity="0.1"/>
  <polygon points="330.8,84.1 332.3,83.5 333.8,83.4 334.9,83.6 333.6,84.2 332.7,84.5 331.2,84.7 329.8,84.7 330.8,84.1" fill="#fff" opacity="0.08" stroke="#fff" stroke-width="0.3" stroke-opacity="0.1"/>
  <polygon points="369.9,149.8 365.0,151.9 368.8,151.6 372.8,151.5 371.1,153.0 366.6,154.9 370.7,154.9 373.5,157.3 376.4,157.6 378.5,159.9 379.6,160.7 385.6,161.0 384.8,162.4 382.0,163.1 384.0,164.3 378.7,165.6 371.2,165.8 361.5,167.0 359.4,166.7 355.0,168.2 350.6,168.2 346.2,169.6 344.1,169.3 353.7,165.8 358.5,165.0 351.3,165.1 350.9,164.1 356.3,163.1 354.8,161.9 356.9,160.4 363.3,160.2 364.8,158.9 362.8,157.7 358.0,157.6 357.5,157.0 359.7,156.0 358.9,155.5 356.0,156.6 357.4,154.6 356.4,153.7 359.4,151.6 363.2,150.0 365.7,150.1 369.9,149.8" fill="#fff" opacity="0.08" stroke="#fff" stroke-width="0.3" stroke-opacity="0.1"/>
  <polygon points="361.4,82.2 362.6,82.0 364.1,82.0 365.6,82.1 363.7,82.4 361.9,82.5 361.4,82.2" fill="#fff" opacity="0.08" stroke="#fff" stroke-width="0.3" stroke-opacity="0.1"/>
  <polygon points="270.2,127.3 268.2,127.7 268.5,127.4 269.6,126.9 269.9,126.8 271.0,126.7 271.0,127.0 270.2,127.3" fill="#fff" opacity="0.08" stroke="#fff" stroke-width="0.3" stroke-opacity="0.1"/>
  <polygon points="272.2,125.3 270.2,125.2 270.3,124.8 271.3,124.4 273.0,124.3 272.9,125.1 272.2,125.3" fill="#fff" opacity="0.08" stroke="#fff" stroke-width="0.3" stroke-opacity="0.1"/>
  <polygon points="376.4,84.5 375.1,84.4 374.0,84.5 372.3,84.4 370.3,84.4 370.4,84.3 371.7,84.1 373.3,84.2 374.1,84.3 375.8,84.1 376.3,84.2 376.4,84.5" fill="#fff" opacity="0.08" stroke="#fff" stroke-width="0.3" stroke-opacity="0.1"/>
  <polygon points="283.7,120.7 281.9,121.2 282.5,121.3 281.4,121.9 280.1,122.8 278.9,123.6 277.0,124.2 277.3,124.5 276.1,125.2 274.9,125.0 275.8,124.0 277.5,123.2 275.5,123.2 273.7,123.0 275.9,122.2 275.8,121.6 277.5,121.6 280.5,121.0 284.0,120.3 283.7,120.7" fill="#fff" opacity="0.08" stroke="#fff" stroke-width="0.3" stroke-opacity="0.1"/>
  <polygon points="351.5,137.3 349.7,138.4 350.8,139.4 346.4,140.7 338.5,141.9 336.2,142.2 333.9,142.0 329.2,141.4 332.3,140.7 329.5,139.8 333.3,139.5 334.0,139.0 330.9,138.5 333.9,137.5 336.9,137.3 338.0,138.5 342.2,137.6 344.0,138.1 348.4,137.2 351.5,137.3" fill="#fff" opacity="0.08" stroke="#fff" stroke-width="0.3" stroke-opacity="0.1"/>
  <polygon points="289.9,123.5 289.6,123.1 291.5,122.5 293.8,122.1 294.5,122.3 293.5,122.9 291.8,123.4 291.2,123.5 289.9,123.5" fill="#fff" opacity="0.08" stroke="#fff" stroke-width="0.3" stroke-opacity="0.1"/>
  <polygon points="383.2,86.7 382.0,86.5 382.5,87.1 377.9,87.1 374.1,86.5 375.6,86.0 378.5,85.8 378.2,85.0 378.8,84.8 380.6,84.8 382.1,85.0 384.6,85.3 385.1,85.6 386.9,85.7 389.0,85.6 389.9,85.9 389.5,86.2 391.6,86.1 390.9,85.7 392.0,85.3 391.3,88.7 387.6,88.0 383.2,87.2 383.2,86.7" fill="#fff" opacity="0.08" stroke="#fff" stroke-width="0.3" stroke-opacity="0.1"/>
  <polygon points="299.3,113.4 298.1,113.3 299.8,112.5 299.6,112.2 301.9,111.4 302.8,111.7 304.2,111.8 302.7,112.3 301.8,112.7 301.0,112.9 299.3,113.4" fill="#fff" opacity="0.08" stroke="#fff" stroke-width="0.3" stroke-opacity="0.1"/>
  <polygon points="391.1,90.4 392.6,90.3 392.8,90.6 391.0,91.0 391.1,90.4" fill="#fff" opacity="0.08" stroke="#fff" stroke-width="0.3" stroke-opacity="0.1"/>
  <polygon points="389.2,90.4 391.1,90.4 391.0,91.0 390.8,91.0 389.6,91.0 387.7,90.7 387.8,90.6 389.2,90.4" fill="#fff" opacity="0.08" stroke="#fff" stroke-width="0.3" stroke-opacity="0.1"/>
  <polygon points="299.6,115.3 295.5,116.0 298.4,116.0 295.6,117.0 292.7,117.4 289.9,118.4 292.7,118.3 296.1,117.9 300.5,117.1 300.1,117.7 299.5,118.4 297.5,119.3 295.5,119.8 293.3,120.0 291.2,120.8 289.3,121.2 286.5,120.9 286.0,120.4 287.2,119.7 285.3,120.0 282.1,120.2 280.5,120.4 278.1,120.4 278.1,119.7 276.7,119.6 274.3,120.1 274.1,119.5 271.5,119.4 267.7,119.6 265.0,120.0 260.9,120.9 259.7,122.1 256.3,123.2 253.5,124.2 253.7,125.1 251.7,126.8 250.2,127.9 248.5,128.9 247.3,130.2 245.8,131.4 245.5,132.7 245.1,133.6 242.2,134.5 238.8,136.0 235.2,138.0 232.2,140.5 233.4,140.6 236.7,139.7 241.9,137.2 243.6,136.0 245.3,136.5 247.8,136.4 250.3,135.9 252.6,134.9 255.5,133.4 258.0,131.7 261.9,131.1 265.2,129.8 270.9,127.8 271.9,127.9 271.1,129.1 270.9,129.8 272.1,129.9 271.0,130.8 269.2,132.1 267.9,132.8 268.2,133.8 265.1,135.0 260.7,136.9 260.5,137.7 258.7,138.9 261.3,138.9 265.7,137.7 267.7,137.4 264.9,139.1 261.1,141.8 257.7,144.3 255.3,145.2 254.3,146.8 253.0,148.3 253.3,149.7 252.8,150.6 250.4,152.3 250.6,153.0 249.7,153.9 246.4,156.1 244.6,156.4 243.0,156.6 240.7,156.3 237.3,156.9 235.7,156.1 235.0,154.2 234.1,153.1 233.4,152.5 230.8,153.0 228.9,152.8 224.4,153.8 221.3,154.3 222.1,154.8 226.6,153.9 230.0,154.2 231.2,155.1 230.3,156.7 227.8,157.1 225.0,159.3 223.1,160.9 222.6,162.8 224.2,163.9 227.9,162.6 226.0,164.0 225.6,165.2 222.9,165.4 219.8,164.7 218.1,164.6 215.5,164.9 215.2,164.1 217.4,162.6 220.6,162.6 219.6,161.3 218.6,160.5 217.8,161.3 215.9,161.1 214.5,160.8 213.2,160.3 211.2,160.9 210.7,161.0 209.3,161.9 208.2,163.1 208.3,163.6 209.2,162.9 208.8,163.5 208.0,163.9 207.3,163.5 207.1,163.0 206.3,162.6 205.9,162.2 205.5,161.7 204.4,161.4 205.6,162.5 205.2,163.2 203.9,162.2 203.6,161.6 203.9,161.4 203.1,161.6 203.1,161.9 201.2,162.9 199.0,163.3 199.6,162.9 199.6,162.5 200.1,161.8 198.9,162.9 198.6,163.4 197.7,164.0 196.6,164.3 194.5,165.0 194.5,164.8 196.3,164.1 197.0,162.9 199.0,161.5 197.8,161.9 196.4,163.2 196.5,162.2 196.0,163.5 193.7,165.0 193.7,165.5 192.9,166.1 190.7,167.9 188.8,168.4 187.6,167.6 186.0,167.8 185.7,167.3 184.7,167.3 183.9,167.6 182.0,167.3 180.7,167.3 179.3,167.7 177.7,168.6 176.2,169.9 174.6,171.6 173.3,173.3 172.5,174.0 170.4,176.5 169.1,177.5 168.4,178.1 167.1,178.7 166.7,178.5 166.6,177.7 167.4,176.7 167.6,175.9 169.1,173.8 170.4,172.0 171.2,171.2 172.6,170.4 173.7,169.2 175.2,166.9 175.4,166.2 174.1,165.6 174.2,165.2 175.1,163.9 175.5,162.7 175.1,161.4 175.2,160.1 175.0,159.2 174.6,158.8 174.0,159.5 173.1,160.0 172.6,160.6 172.3,160.5 172.6,159.8 172.1,159.6 172.2,158.5 173.4,156.8 173.1,155.8 173.7,154.5 173.6,153.7 173.2,152.8 171.5,152.6 170.7,151.7 169.6,151.6 168.6,151.8 166.9,152.7 165.8,153.4 165.0,154.1 165.0,154.1 165.0,154.1 163.0,154.7 161.4,155.4 158.3,157.2 157.2,157.7 156.0,158.7 154.9,159.9 153.2,161.3 151.6,163.4 150.4,164.6 149.4,165.9 149.0,168.0 148.2,169.2 149.0,170.2 149.3,171.2 149.9,172.1 150.4,172.8 151.3,173.1 152.5,172.6 154.2,171.4 154.8,171.3 155.5,171.9 156.3,173.1 156.6,174.4 157.0,175.2 156.7,175.8 155.7,176.5 154.4,176.7 153.2,177.3 153.0,177.8 152.1,178.3 150.6,179.1 150.9,178.4 150.8,178.1 150.5,178.3 150.6,178.6 150.1,179.0 149.3,179.4 149.1,179.8 148.4,180.2 148.2,180.5 147.3,181.1 146.8,181.2 146.6,181.0 145.9,181.2 145.8,182.0 146.1,181.9 146.0,182.6 146.0,182.8 146.4,182.9 146.6,183.3 146.5,183.5 146.7,183.7 146.8,184.5 147.1,185.2 147.5,185.5 147.7,185.5 147.9,186.1 147.9,186.5 148.1,186.9 148.4,187.0 148.5,188.0 148.5,188.2 148.5,189.0 148.3,189.8 148.4,190.6 148.2,191.4 147.9,191.5 147.6,191.8 147.1,192.5 146.4,192.7 145.8,193.2 145.1,193.9 144.8,194.4 144.2,195.2 143.9,195.2 143.3,195.8 143.0,196.3 142.4,196.4 142.1,196.9 142.0,197.5 141.5,198.8 141.4,200.0 141.3,201.5 141.2,202.6 141.0,203.0 141.3,203.6 141.5,203.6 141.5,204.5 142.1,205.1 142.8,205.3 143.7,205.9 144.4,205.9 145.0,206.8 144.8,206.9 145.4,207.8 145.7,208.7 145.8,209.7 146.0,210.8 146.6,211.6 148.2,211.4 148.8,211.9 149.1,211.3 150.2,210.1 151.4,210.1 152.2,211.0 152.5,210.7 153.4,212.0 154.9,212.2 155.6,212.4 156.7,212.2 157.1,212.8 157.2,213.7 156.6,214.0 156.4,214.3 155.5,213.7 155.5,215.0 155.0,215.9 153.9,216.3 153.7,218.2 154.4,218.7 155.3,217.7 155.2,216.7 155.8,215.3 157.9,216.3 158.1,215.3 158.9,215.2 158.7,217.0 159.7,218.0 160.2,219.8 160.0,220.5 161.3,221.7 163.1,223.0 163.6,224.6 164.8,225.8 165.9,226.0 166.1,225.6 168.2,227.2 170.2,228.7 168.6,228.1 168.9,229.4 170.2,230.6 171.3,232.5 171.2,234.1 172.2,234.8 172.8,235.7 173.9,237.2 174.9,239.2 174.7,240.1 175.5,240.7 176.4,242.2 177.1,243.3 179.6,245.2 179.8,245.1 181.5,246.0 183.8,247.8 184.6,248.4 186.2,249.8 188.5,252.6 188.9,253.5 189.7,253.8 190.2,255.1 191.7,258.7 193.0,259.7 193.1,260.9 191.4,261.3 192.2,262.2 196.7,264.6 197.0,266.3 198.8,266.1 202.2,268.2 206.9,271.1 208.4,272.6 208.2,273.3 211.3,274.1 217.2,277.1 221.6,278.7 226.4,281.6 231.0,284.6 233.6,285.8 236.3,286.7 237.7,287.6 239.5,289.7 240.4,290.7 240.0,292.7 238.8,293.1 235.1,293.7 233.7,294.6 231.9,295.1 231.2,294.9 230.8,295.6 232.3,298.3 232.5,300.1 232.7,300.9 232.0,301.1 232.5,302.8 230.3,303.6 230.7,304.8 228.6,304.7 228.4,305.3 225.1,304.4 220.7,303.5 219.0,303.5 216.0,302.9 213.3,303.0 211.8,303.6 212.2,304.6 213.2,305.5 213.7,306.7 213.6,307.2 212.2,307.4 211.1,309.0 209.6,309.4 208.2,309.5 208.2,310.6 207.1,310.9 206.8,311.4 204.5,311.4 202.3,310.5 201.0,310.2 198.0,308.8 196.3,308.3 193.9,306.9 194.5,307.7 198.9,310.1 199.6,311.0 201.8,312.1 202.4,312.8 201.8,314.1 198.9,313.8 194.2,312.6 191.3,311.6 192.8,312.8 193.6,313.8 194.9,314.8 194.0,314.9 191.8,314.4 188.8,313.1 188.4,313.3 190.5,315.0 192.7,316.0 193.4,315.9 195.1,316.9 193.5,316.8 192.8,317.3 194.5,318.9 195.1,319.6 192.9,319.0 192.2,319.4 193.2,320.5 197.0,322.4 199.7,323.3 200.9,324.6 199.7,324.9 201.1,326.6 200.2,326.8 200.5,327.4 204.0,329.3 207.0,330.6 205.9,330.4 204.1,329.9 203.8,330.2 203.0,330.4 205.4,332.0 204.6,331.8 201.4,330.8 197.1,329.0 192.9,327.4 190.4,326.0 189.3,325.0 186.4,323.5 181.5,320.2 180.0,318.5 180.3,317.7 176.4,316.2 176.3,315.1 173.3,312.2 176.5,313.6 173.3,310.1 171.3,309.1 173.1,311.2 171.5,310.5 169.3,308.0 166.5,304.7 166.3,303.8 164.0,301.7 162.0,299.5 162.9,299.8 161.8,297.4 161.1,295.0 160.1,292.7 157.8,289.7 157.5,288.5 155.9,286.1 156.0,284.5 154.7,281.2 153.7,277.8 152.9,274.2 151.8,271.2 150.6,268.4 148.2,266.2 147.8,265.3 143.3,261.0 139.4,256.7 137.8,254.5 136.9,252.4 137.2,252.1 135.5,248.5 133.8,243.7 132.6,238.7 132.0,237.3 131.7,235.5 130.7,233.1 129.8,231.3 130.5,231.0 130.2,228.5 131.0,227.7 132.6,227.8 133.8,227.2 133.7,226.1 132.9,226.4 132.3,224.7 132.7,224.5 133.1,222.6 133.7,222.8 134.4,222.0 135.3,221.4 135.5,220.6 136.4,221.0 137.7,221.3 137.7,220.6 138.3,221.0 138.6,220.0 139.2,219.7 139.9,220.4 141.0,219.9 141.9,219.5 141.6,218.5 142.3,217.8 142.8,215.9 143.3,215.7 143.9,214.0 143.9,212.5 143.8,211.5 144.1,210.2 144.6,210.1 144.4,209.7 144.5,208.8 144.2,207.6 143.7,207.0 143.1,207.3 142.4,207.2 142.1,206.9 141.7,207.1 141.7,208.8 141.3,208.6 140.9,208.6 140.4,208.0 140.8,206.7 140.5,206.8 140.2,206.2 140.4,205.2 140.1,204.5 139.9,203.9 139.5,203.2 139.2,203.6 139.3,203.1 139.0,201.9 139.1,201.3 139.4,201.1 139.6,200.7 139.7,199.9 139.6,198.9 139.4,198.2 139.7,197.6 139.8,196.9 139.4,197.5 138.9,197.6 139.1,196.7 139.0,196.1 139.1,195.5 139.5,195.0 140.1,194.7 140.1,194.0 140.5,194.1 140.7,193.0 140.9,191.6 141.3,190.7 141.4,189.5 141.8,188.0 142.1,187.9 142.0,188.4 142.1,188.4 142.5,187.7 142.4,187.0 142.0,187.3 141.7,186.3 141.6,185.6 141.7,184.6 141.5,183.7 141.7,182.9 141.7,181.8 141.5,180.8 141.6,179.8 142.1,178.2 143.6,174.8 144.1,173.4 144.4,171.7 144.1,171.0 143.3,170.3 143.0,169.6 143.4,168.0 143.7,166.5 144.6,164.3 144.9,162.9 146.0,160.4 147.2,158.3 147.8,157.5 148.1,156.5 149.0,154.4 150.2,153.1 151.9,150.6 153.6,148.9 154.9,147.9 155.0,148.3 155.7,147.8 156.2,147.8 157.0,147.4 158.3,146.3 159.3,145.7 160.7,144.5 163.7,141.9 166.3,139.4 168.3,137.9 170.0,136.2 170.8,135.6 172.3,135.2 173.3,134.1 175.1,132.7 177.2,131.6 178.0,130.7 180.0,129.3 181.7,128.2 182.6,127.8 185.3,126.3 187.8,125.1 188.8,124.8 190.8,123.4 191.0,123.0 192.5,121.9 191.5,122.0 190.0,122.7 187.8,123.5 186.2,124.3 183.5,126.0 182.7,126.5 182.3,126.8 181.2,127.3 181.1,127.6 179.1,128.5 178.1,129.2 176.9,129.9 175.0,131.4 172.2,132.8 170.7,133.8 169.3,134.7 167.8,135.4 167.4,136.2 165.9,137.3 164.4,138.4 164.0,138.6 163.4,138.3 163.5,138.0 165.3,136.9 167.3,135.2 169.2,133.5 170.4,132.5 172.3,131.8 173.9,131.0 175.2,129.9 177.1,128.4 176.9,128.3 177.9,127.7 179.2,126.5 181.5,125.1 181.6,125.1 181.0,125.8 181.6,126.0 182.8,125.6 185.6,123.9 187.1,122.7 189.3,121.7 191.6,120.6 194.5,119.3 197.6,118.0 199.2,117.4 201.8,116.1 202.8,115.4 203.7,115.0 204.7,114.3 206.0,113.6 207.7,112.3 208.5,111.8 210.3,111.3 214.7,109.5 220.0,107.7 220.6,107.7 222.3,107.0 226.0,105.6 228.6,105.1 231.1,104.3 233.1,104.2 235.6,103.9 238.4,103.3 240.4,103.4 245.3,103.1 249.5,102.6 252.5,102.0 254.3,101.7 254.7,101.7 251.4,103.2 247.9,104.0 248.3,104.1 250.9,103.7 253.9,103.2 254.1,103.1 259.9,101.1 262.3,100.4 266.4,98.8 269.8,98.2 271.4,98.3 274.7,97.3 277.2,97.1 281.2,96.3 282.7,96.3 284.7,95.9 287.0,95.3 289.8,95.2 294.1,94.5 297.5,94.3 299.2,93.8 301.9,92.8 304.6,92.2 310.7,91.4 312.8,91.0 316.6,90.3 318.8,89.6 323.3,88.9 326.3,88.6 327.9,88.0 326.2,87.8 327.1,87.5 328.9,86.9 329.9,86.4 331.7,85.8 333.0,86.1 333.9,86.8 332.5,87.4 333.5,87.4 334.8,86.7 335.0,86.0 336.6,85.0 334.4,85.0 335.1,84.2 336.7,83.6 338.4,83.0 338.3,82.6 341.0,81.7 341.1,81.3 343.3,80.6 345.0,80.5 346.8,80.0 348.9,79.4 350.6,79.0 354.5,78.3 355.1,78.4 352.8,79.0 350.8,79.5 348.8,80.2 346.1,80.6 345.4,81.1 343.1,81.9 342.8,82.1 341.7,82.6 342.4,83.2 342.2,83.7 344.2,83.2 345.1,83.2 345.8,82.8 347.8,82.9 347.9,82.6 349.4,82.8 351.0,82.3 352.4,82.1 353.2,82.5 353.2,82.8 355.0,82.9 357.5,82.5 359.8,82.7 361.4,82.7 361.9,83.2 363.9,83.4 363.6,83.9 362.5,84.5 362.3,84.9 360.8,85.1 359.3,85.1 358.4,85.7 356.9,85.7 355.9,86.1 356.8,86.4 358.0,86.5 357.1,86.9 358.2,86.8 359.8,86.4 360.1,86.2 361.8,86.2 364.2,85.9 367.1,85.8 368.1,86.1 370.8,86.4 368.7,86.9 365.3,87.6 364.0,87.8 363.7,87.3 360.2,87.7 362.2,88.1 364.6,88.2 366.2,88.5 368.1,88.7 370.6,88.8 370.1,89.3 367.5,89.5 366.0,90.1 366.2,90.5 365.3,91.0 364.1,91.3 362.0,91.9 360.7,92.0 359.5,92.7 357.2,92.8 355.6,92.6 355.3,92.8 353.0,93.1 352.7,92.9 350.4,93.2 349.3,93.5 346.1,93.8 343.5,94.2 342.2,94.3 341.0,94.8 338.4,95.1 336.8,95.3 334.0,95.8 330.9,96.1 329.5,96.4 329.6,96.9 329.1,97.4 327.1,97.9 326.8,98.6 325.9,99.2 324.0,99.4 323.9,99.7 325.1,99.9 324.2,100.1 319.8,100.6 320.7,101.2 318.2,101.1 317.6,101.6 318.2,101.8 317.0,102.3 314.3,102.9 311.1,103.8 309.5,104.4 309.0,104.8 306.2,105.5 305.5,104.9 303.4,105.8 301.9,107.0 301.9,107.4 299.1,108.0 300.2,108.4 302.4,107.8 303.3,108.0 302.7,108.5 302.6,108.9 301.3,109.3 298.7,110.0 298.5,110.5 295.9,111.5 295.8,112.1 295.1,112.8 297.6,112.5 297.9,112.8 296.0,113.7 292.4,114.2 295.3,114.0 294.9,114.4 298.7,114.0 301.5,113.2 303.4,112.5 307.8,112.0 310.4,112.1 309.4,112.7 307.4,113.3 302.6,114.5 300.8,114.4 299.6,115.3" fill="#fff" opacity="0.08" stroke="#fff" stroke-width="0.3" stroke-opacity="0.1"/>
  <polygon points="323.2,105.1 321.9,104.9 321.6,105.7 319.0,106.2 320.3,106.5 318.6,106.9 314.4,107.3 315.7,107.4 320.0,107.0 320.1,107.3 319.0,107.7 317.0,108.1 312.9,108.6 310.1,108.9 307.4,109.8 304.8,110.7 303.1,110.8 303.6,110.1 301.8,110.6 300.6,110.6 302.0,109.7 304.0,108.8 304.4,108.4 304.2,107.6 305.5,106.3 306.2,105.7 308.3,105.4 310.2,104.8 310.5,104.5 314.2,103.9 314.1,104.2 313.5,104.8 312.4,105.4 312.2,105.9 314.3,105.1 315.5,104.3 316.6,103.7 318.3,103.5 318.0,104.4 319.1,103.8 321.2,103.2 323.2,103.6 324.1,103.8 324.6,104.7 323.2,105.1" fill="#fff" opacity="0.08" stroke="#fff" stroke-width="0.3" stroke-opacity="0.1"/>
  <polygon points="319.5,108.3 317.3,108.1 320.7,107.5 321.1,107.6 320.7,108.0 319.5,108.3" fill="#fff" opacity="0.08" stroke="#fff" stroke-width="0.3" stroke-opacity="0.1"/>
  <polygon points="314.3,117.6 313.1,117.9 313.1,117.6 313.1,117.2 312.4,117.0 312.6,116.8 314.8,116.1 316.3,115.8 316.6,115.9 316.4,116.7 314.3,117.6" fill="#fff" opacity="0.08" stroke="#fff" stroke-width="0.3" stroke-opacity="0.1"/>
  <polygon points="314.1,114.4 311.5,115.1 314.8,114.8 316.5,115.3 312.2,116.6 309.5,117.1 310.8,117.5 312.6,117.5 310.8,118.6 309.0,119.5 307.3,120.0 308.6,120.3 306.2,121.3 305.3,122.5 304.0,123.2 300.5,124.6 298.0,124.5 296.2,126.1 296.0,126.9 293.1,128.6 293.6,129.2 290.8,130.0 285.4,131.0 286.4,129.9 289.5,128.1 288.5,127.7 286.2,128.4 284.4,129.6 283.2,130.7 282.4,131.3 278.9,132.9 276.0,133.8 276.5,132.8 278.5,130.6 275.8,132.4 274.0,133.7 272.8,134.3 273.1,132.5 274.6,130.7 276.1,129.5 277.3,129.3 278.9,128.0 280.4,126.7 279.3,127.0 278.2,125.8 279.5,125.0 282.4,124.6 282.7,125.4 283.6,126.2 284.9,125.6 287.0,125.2 291.1,124.7 292.8,124.1 294.1,123.6 295.7,122.4 296.8,121.3 297.9,121.3 300.3,120.3 300.4,119.9 301.8,119.3 300.5,119.4 299.9,118.8 300.8,117.2 302.2,116.2 303.0,115.5 304.5,114.9 306.3,115.0 306.5,114.5 310.7,113.7 314.3,113.5 315.9,113.6 316.8,114.2 314.1,114.4" fill="#fff" opacity="0.08" stroke="#fff" stroke-width="0.3" stroke-opacity="0.1"/>
  <polygon points="319.7,109.5 318.4,110.0 318.4,110.5 317.2,110.7 315.5,110.6 313.3,111.3 309.8,111.7 308.7,111.2 309.4,110.8 311.1,110.4 315.1,109.2 316.4,109.1 315.1,109.9 318.1,109.3 319.7,109.5" fill="#fff" opacity="0.08" stroke="#fff" stroke-width="0.3" stroke-opacity="0.1"/>
  <polygon points="432.4,97.6 433.9,98.0 435.6,98.6 435.6,98.6 433.6,98.6 432.2,98.3 431.9,97.8 432.4,97.6" fill="#fff" opacity="0.08" stroke="#fff" stroke-width="0.3" stroke-opacity="0.1"/>
  <polygon points="313.4,112.4 310.6,112.4 311.0,112.0 314.7,111.3 316.8,111.1 318.4,111.1 319.3,111.3 318.7,112.0 317.4,112.7 314.0,112.7 313.4,112.4" fill="#fff" opacity="0.08" stroke="#fff" stroke-width="0.3" stroke-opacity="0.1"/>
  <polygon points="321.5,102.8 322.0,101.8 323.8,101.7 327.5,101.0 328.2,101.2 330.2,101.6 331.7,102.0 334.4,101.9 332.6,102.9 330.9,103.3 329.1,104.0 327.5,104.3 325.3,104.6 325.2,104.2 324.4,103.3 322.9,102.9 321.5,102.8" fill="#fff" opacity="0.08" stroke="#fff" stroke-width="0.3" stroke-opacity="0.1"/>
  <polygon points="421.2,97.2 423.1,97.1 424.4,97.5 425.2,98.1 424.2,98.3 422.9,97.8 421.2,97.2" fill="#fff" opacity="0.08" stroke="#fff" stroke-width="0.3" stroke-opacity="0.1"/>
  <polygon points="322.6,111.2 321.1,111.2 321.7,110.8 323.1,110.3 324.8,110.3 325.6,110.6 324.0,111.0 322.6,111.2" fill="#fff" opacity="0.08" stroke="#fff" stroke-width="0.3" stroke-opacity="0.1"/>
  <polygon points="425.2,98.6 427.7,98.3 430.9,99.2 433.0,99.4 432.7,100.2 430.3,100.4 428.8,100.2 426.8,99.6 425.2,98.6" fill="#fff" opacity="0.08" stroke="#fff" stroke-width="0.3" stroke-opacity="0.1"/>
  <polygon points="330.9,109.3 328.8,109.6 326.6,109.8 323.7,109.9 323.7,109.4 324.7,109.0 327.1,108.9 327.3,108.4 330.4,108.3 330.0,108.6 330.9,108.9 330.4,109.3 330.9,109.3" fill="#fff" opacity="0.08" stroke="#fff" stroke-width="0.3" stroke-opacity="0.1"/>
  <polygon points="331.9,106.8 330.3,106.9 330.6,107.1 330.1,107.4 328.1,107.5 326.4,107.4 327.3,106.4 326.9,105.7 327.7,105.2 328.9,105.2 329.5,105.8 331.4,104.5 332.9,104.1 335.6,104.6 336.2,104.9 333.6,105.6 330.5,106.1 329.4,106.6 333.7,106.1 334.7,106.4 333.9,106.6 331.9,106.8" fill="#fff" opacity="0.08" stroke="#fff" stroke-width="0.3" stroke-opacity="0.1"/>
  <polygon points="461.9,126.5 461.9,126.8 458.9,127.3 457.0,126.8 454.6,126.8 452.4,126.1 452.5,125.6 450.4,124.9 448.6,123.5 447.5,123.5 445.8,122.1 443.9,121.6 443.1,120.6 442.3,119.3 443.1,118.5 442.2,117.8 442.4,117.3 444.3,117.5 445.3,118.0 446.0,119.2 446.5,120.3 448.6,121.9 451.5,123.4 454.1,124.9 457.4,125.9 461.9,126.5" fill="#fff" opacity="0.08" stroke="#fff" stroke-width="0.3" stroke-opacity="0.1"/>
  <polygon points="331.7,110.1 330.1,110.5 329.9,111.0 328.4,111.4 326.8,111.5 325.7,111.9 324.7,112.2 324.4,112.6 323.9,113.1 324.8,113.4 325.2,113.9 324.9,114.3 323.4,114.9 321.6,115.2 320.4,115.2 319.5,115.0 319.9,114.5 319.3,113.8 319.4,113.2 320.1,112.6 321.8,111.6 324.2,111.3 326.3,111.1 328.3,110.6 329.2,110.0 330.7,109.6 332.3,109.6 331.7,110.1" fill="#fff" opacity="0.08" stroke="#fff" stroke-width="0.3" stroke-opacity="0.1"/>
  <polygon points="340.9,104.8 338.1,104.7 337.2,104.4 337.6,104.2 337.1,103.6 337.5,103.2 339.1,102.9 339.1,102.9 340.6,103.5 341.8,104.1 341.0,104.5 340.9,104.8" fill="#fff" opacity="0.08" stroke="#fff" stroke-width="0.3" stroke-opacity="0.1"/>
  <polygon points="443.0,108.1 444.9,108.2 443.6,107.9 442.7,107.1 443.7,106.5 444.8,106.3 446.9,106.4 448.6,106.8 451.8,107.7 453.3,107.9 453.3,107.6 453.6,107.1 452.5,106.8 454.7,106.7 453.5,106.6 452.1,106.0 450.9,105.0 452.5,104.9 450.3,103.5 447.6,103.6 446.8,102.9 445.6,102.4 446.1,101.8 447.9,101.5 449.7,101.6 451.2,101.0 451.0,100.4 446.9,100.3 446.8,99.7 444.4,99.2 443.5,98.5 441.9,98.4 440.7,97.8 438.9,98.4 436.4,98.2 428.7,95.6 429.0,95.0 427.4,93.9 422.0,93.2 419.7,92.6 419.3,92.2 420.6,91.7 419.3,91.2 417.1,91.1 414.6,90.8 412.1,90.4 409.3,90.2 407.5,89.2 405.4,89.4 406.0,90.0 405.0,90.3 400.6,89.8 397.5,89.7 393.4,89.1 391.3,88.7 392.0,85.3 392.0,85.3 394.4,85.0 396.8,85.1 395.3,84.6 394.4,83.9 393.5,83.7 393.4,83.3 393.9,83.1 397.6,83.4 403.6,83.0 405.5,83.0 409.1,82.7 412.6,82.4 413.7,82.1 416.1,82.9 422.4,82.9 422.9,83.3 425.4,83.2 428.0,83.7 429.6,83.3 433.4,83.1 433.9,82.8 431.8,82.3 434.0,81.3 436.2,81.6 438.4,81.3 438.0,80.8 442.9,81.2 445.5,80.7 449.5,81.2 451.9,80.8 457.1,81.0 456.8,81.6 455.2,82.5 452.4,84.0 448.8,84.5 446.0,84.5 445.1,84.7 441.5,84.2 435.8,84.4 430.8,84.5 426.1,84.6 422.8,85.4 425.2,85.6 427.4,85.2 434.0,85.2 433.6,86.3 439.0,86.9 446.8,86.9 446.3,86.2 451.1,87.0 454.3,87.6 452.7,88.0 455.2,88.7 458.5,89.1 463.6,90.7 469.9,92.4 480.3,93.8 493.1,96.1 490.8,94.9 491.7,94.5 490.6,93.8 488.1,93.4 486.3,92.6 486.5,91.4 488.6,91.3 492.6,91.7 495.9,91.6 500.9,91.8 507.8,93.0 510.3,93.3 516.2,94.6 522.0,96.0 524.9,96.8 529.1,98.3 530.3,98.9 530.2,99.5 534.7,101.1 535.9,101.4 536.4,101.8 538.1,102.3 539.6,102.8 541.6,103.0 543.1,103.7 544.0,103.9 545.5,104.5 547.1,105.3 548.6,105.9 549.8,106.2 550.4,106.3 550.2,105.9 550.5,105.4 552.3,104.9 553.7,104.8 557.0,105.3 559.2,106.1 561.4,107.4 563.9,108.7 565.7,109.9 564.3,109.8 561.8,109.1 559.6,109.1 557.9,108.1 556.6,108.5 556.8,109.0 557.5,109.3 558.2,109.7 557.7,109.6 557.9,109.9 557.8,110.2 556.1,109.6 555.4,109.2 555.0,109.3 553.1,108.7 552.7,108.7 553.3,109.3 553.2,109.7 556.1,111.6 558.5,112.7 560.7,114.2 558.7,113.3 557.8,113.3 554.8,112.0 554.0,112.3 556.1,113.5 559.6,115.3 562.3,116.5 563.6,117.7 565.6,118.7 566.9,118.5 566.4,117.6 567.7,117.9 567.5,117.1 564.0,115.2 564.0,114.3 563.1,113.5 564.4,113.6 567.2,115.6 569.4,116.6 572.0,118.2 574.7,119.4 574.9,118.4 577.2,118.6 579.0,118.4 580.2,118.0 582.3,118.6 584.0,119.8 585.1,119.8 585.2,119.2 587.7,120.1 590.2,121.1 591.2,122.1 595.1,124.1 599.7,126.6 603.9,129.2 607.8,132.4 611.3,135.6 612.6,137.5 614.2,139.1 613.6,139.2 615.3,140.7 617.4,143.6 618.4,145.5 621.2,147.4 621.6,148.4 620.0,147.9 618.9,147.0 618.8,148.8 619.3,149.7 621.8,153.0 624.2,155.6 625.8,156.9 628.0,157.1 630.6,157.4 631.8,156.8 633.4,156.9 637.3,158.7 641.1,161.6 642.5,164.0 643.9,167.0 645.5,169.8 647.1,173.4 645.8,173.0 644.6,171.5 643.4,171.8 643.0,173.0 642.0,172.9 639.9,172.1 638.9,172.9 638.7,174.4 637.3,172.9 637.1,174.3 639.1,176.2 641.5,179.4 642.8,181.4 644.1,182.5 644.4,181.4 646.1,182.3 647.6,183.4 648.7,183.4 649.2,182.6 650.2,182.6 650.5,182.3 651.7,182.3 653.0,182.7 654.1,183.8 654.7,184.8 655.3,185.2 656.3,186.1 656.9,185.9 658.4,186.8 658.9,187.4 658.6,188.8 657.0,189.2 655.2,189.8 654.4,189.1 653.0,188.9 651.7,187.7 650.7,187.4 649.7,186.0 648.9,185.6 648.1,185.7 647.2,185.1 646.1,185.1 645.1,185.1 645.9,186.3 644.9,185.7 644.0,184.5 642.6,182.4 641.3,181.4 640.2,179.6 639.0,179.2 637.1,177.4 636.1,177.2 633.8,175.8 631.4,174.2 629.7,173.6 630.5,175.4 631.3,178.3 630.9,179.0 630.3,179.6 628.2,177.1 626.4,176.0 624.0,175.4 623.3,174.6 622.9,175.3 621.1,175.1 620.0,174.7 619.0,174.0 618.0,173.5 616.7,173.2 616.3,174.5 617.1,175.0 618.0,176.3 617.4,176.6 617.7,177.1 617.4,177.3 617.0,177.8 617.6,178.5 617.3,179.5 616.9,181.6 618.3,182.7 619.0,184.4 619.1,187.6 620.1,191.1 620.4,193.2 620.5,195.7 621.1,196.5 621.0,197.6 620.6,199.5 620.2,200.3 620.8,202.0 622.7,203.9 623.7,205.3 624.3,207.5 626.1,210.5 625.5,211.3 625.7,213.3 626.4,213.4 625.5,215.2 625.6,216.9 625.3,218.0 623.2,217.7 621.3,215.9 619.9,214.7 619.0,214.3 617.4,213.4 615.8,211.6 614.9,210.7 612.3,209.5 609.6,206.7 607.7,204.8 606.2,202.7 604.8,201.3 603.8,204.2 602.8,204.9 599.7,204.4 599.9,203.2 599.0,202.8 596.5,202.8 595.3,203.2 594.0,202.3 592.0,201.8 590.0,204.4 587.8,206.4 586.0,208.3 583.0,210.0 581.1,210.8 579.2,211.9 577.3,209.9 576.4,210.1 575.4,211.4 574.2,213.5 571.9,214.2 569.5,213.7 567.6,214.2 565.6,213.0 563.0,210.9 562.2,211.8 560.8,211.8 560.6,213.0 559.5,213.5 560.3,214.3 560.3,214.9 561.6,216.2 563.0,217.6 564.1,217.6 564.7,218.1 566.3,218.2 566.7,219.0 566.8,219.8 567.3,220.4 568.0,220.7 568.5,221.2 569.0,221.5 568.3,220.1 568.4,218.7 568.8,218.2 569.6,218.5 570.1,219.6 570.1,221.1 570.8,221.7 571.1,221.4 571.3,221.9 572.6,220.6 574.1,219.7 575.2,219.1 575.8,216.9 576.4,214.8 576.8,212.8 577.0,211.8 577.2,211.8 577.5,212.7 577.5,213.2 578.5,214.7 579.8,215.5 581.1,215.5 582.4,214.9 583.5,214.6 584.8,215.1 585.5,215.4 586.2,215.2 586.4,215.7 586.3,217.3 586.3,218.0 585.9,219.1 585.9,220.9 585.0,221.3 584.9,222.1 585.0,223.2 585.7,224.3 585.6,224.7 584.8,225.2 583.9,226.7 584.0,227.8 583.7,228.5 582.5,229.2 581.9,230.2 582.1,230.9 581.3,232.1 580.2,232.6 579.0,234.0 578.1,234.7 576.7,236.1 576.4,237.2 576.5,237.8 574.5,239.9 571.0,242.7 569.1,245.1 568.1,245.7 567.3,246.0 566.0,247.5 564.4,248.6 562.3,249.7 561.7,250.1 561.2,250.9 560.5,251.3 560.1,252.0 558.8,252.5 558.0,253.2 556.1,253.9 555.5,253.2 555.6,252.1 555.2,251.8 554.7,250.6 553.9,250.2 554.5,249.9 554.2,249.1 554.5,248.6 554.4,247.8 554.0,247.2 553.3,246.9 553.0,246.3 551.7,246.2 550.3,245.1 549.5,243.9 547.7,243.3 546.6,243.5 544.8,242.3 544.4,241.0 544.5,239.7 542.9,237.9 541.7,237.6 540.3,237.8 539.4,236.9 539.5,236.3 538.7,235.5 537.9,235.3 536.8,234.0 535.1,232.8 533.7,231.8 532.5,232.3 532.7,230.8 532.8,229.9 533.0,228.8 532.8,228.5 532.3,229.8 531.9,231.9 531.3,233.4 530.7,234.1 529.8,233.7 528.6,233.1 526.5,230.3 526.3,230.6 527.5,232.8 529.2,234.6 531.3,237.4 532.3,238.3 533.2,239.2 535.6,240.6 535.1,241.2 535.2,242.6 538.3,243.2 538.8,243.4 539.6,245.1 539.0,245.8 539.4,247.7 540.3,249.7 541.3,249.7 542.8,249.8 544.3,251.4 545.0,252.8 546.4,253.1 550.1,253.2 551.5,253.6 553.0,254.1 553.8,254.3 555.1,254.3 555.7,254.6 555.6,255.3 554.0,256.5 555.1,256.4 556.0,256.4 556.5,256.9 557.6,257.1 559.0,256.5 561.5,254.9 564.3,253.4 566.5,251.8 567.8,251.0 568.6,250.3 570.0,249.5 570.8,249.1 571.9,248.3 573.1,247.4 574.2,246.2 575.1,245.7 575.2,246.2 575.0,247.4 575.1,248.3 574.6,249.2 574.0,251.5 572.9,254.0 571.3,257.0 568.9,260.6 566.5,263.5 562.9,267.1 559.9,269.6 555.2,272.9 552.2,275.1 548.4,278.2 547.4,279.3 546.6,279.9 544.3,281.2 543.3,282.1 542.1,282.6 541.2,283.8 540.0,284.7 539.0,285.9 537.6,286.8 535.4,289.0 535.3,289.8 537.1,289.7 537.1,290.0 535.9,291.1 535.9,291.5 535.4,292.2 536.1,292.8 536.9,293.7 538.0,293.7 538.2,294.1 537.4,295.5 537.3,296.6 536.4,298.7 536.6,299.2 535.1,300.4 533.4,301.7 530.8,303.0 527.5,304.3 523.4,305.8 518.8,308.1 517.4,308.6 514.5,310.0 512.9,310.6 512.1,311.5 513.1,312.0 513.3,312.6 513.1,312.9 513.8,312.8 512.9,313.9 512.0,314.6 512.6,314.6 511.8,315.2 510.1,315.9 507.1,316.9 502.5,318.3 500.7,319.0 500.7,319.4 501.5,319.3 500.8,319.9 499.4,320.9 498.3,321.9 497.0,322.5 494.3,323.5 493.5,323.7 491.7,324.5 490.3,325.2 487.8,326.2 483.2,327.9 480.3,328.8 477.4,329.6 473.6,330.5 471.8,330.7 471.2,331.1 469.2,331.2 467.4,331.6 463.8,331.8 461.7,332.1 460.3,332.2 456.5,333.0 453.4,333.4 451.1,334.0 449.5,334.1 448.3,333.9 447.1,334.0 445.8,333.7 445.6,333.9 445.3,333.7 445.6,333.1 444.8,332.6 446.1,332.4 446.4,331.7 444.5,331.0 443.1,330.4 443.1,330.4 441.1,329.4 438.7,328.9 437.5,328.4 437.1,327.5 436.4,326.9 435.7,325.6 436.1,324.5 435.8,324.0 434.4,323.7 432.7,323.1 431.0,322.1 430.3,321.5 427.4,320.8 427.3,320.1 427.1,319.5 427.9,318.6 429.6,317.5 430.0,317.1 431.6,316.1 432.7,315.6 435.3,314.7 436.8,314.2 437.5,313.3 437.5,312.8 436.3,312.5 435.4,312.0 434.6,311.4 434.9,311.2 436.3,310.6 435.3,309.7 434.7,309.0 432.7,308.5 433.2,308.3 432.6,308.0 431.7,307.3 428.4,306.4 424.1,305.6 421.3,304.8 418.7,303.8 419.0,303.5 420.0,303.0 421.3,302.1 422.5,301.2 421.6,301.1 423.5,299.6 424.4,298.6 422.8,298.0 420.7,297.9 419.8,297.4 418.6,297.3 418.7,297.0 413.7,297.7 411.9,297.7 410.0,298.1 406.1,298.2 403.6,297.6 402.1,296.7 398.7,296.0 395.0,296.1 390.6,296.1 386.5,296.3 382.5,296.5 374.9,297.1 372.2,297.4 367.9,297.6 363.5,297.1 361.3,297.0 357.9,296.5 354.8,296.3 349.2,296.1 346.0,296.2 341.5,296.3 340.6,296.2 339.4,296.0 334.4,294.9 329.9,293.5 325.8,292.3 322.4,291.0 321.2,290.7 317.7,289.7 315.1,288.6 314.1,287.9 313.2,286.8 310.9,285.6 309.0,284.8 307.8,284.4 306.6,283.9 305.8,283.1 305.1,282.7 303.7,282.2 301.1,281.1 299.3,280.6 298.1,280.0 298.1,279.7 296.6,279.1 296.2,278.7 295.1,277.4 295.4,276.7 293.1,275.1 290.8,274.0 292.6,274.1 294.2,273.3 294.8,272.7 294.1,271.7 295.0,271.1 294.9,269.5 293.7,267.5 292.9,266.5 293.0,265.6 291.6,264.4 289.1,263.0 289.0,262.2 288.8,261.3 290.2,261.2 291.2,260.4 290.7,259.6 291.6,258.5 293.4,257.7 294.7,257.7 295.4,256.7 295.0,255.5 296.1,254.5 298.6,254.4 300.4,252.6 302.4,252.2 306.5,253.0 309.5,252.1 311.6,252.0 314.7,250.8 312.0,247.0 312.8,245.0 312.8,243.5 315.1,242.1 319.5,241.9 322.8,241.4 324.8,238.6 325.4,236.6 329.7,237.6 334.1,240.0 340.1,240.9 347.8,243.0 351.1,243.5 357.6,242.7 366.6,243.1 371.8,242.2 380.9,241.7 398.2,240.9 414.3,239.3 418.5,239.3 427.2,236.5 435.1,234.9 437.4,235.4 442.0,234.2 449.2,230.9 452.8,230.6 451.8,232.8 456.7,230.2 456.8,230.9 453.5,233.6 452.7,235.5 454.1,236.0 452.0,239.4 447.4,242.0 447.6,243.6 450.5,243.0 451.2,244.2 453.0,244.3 458.7,244.0 460.9,243.2 464.7,242.7 470.3,242.5 471.5,244.6 475.2,244.2 480.7,243.7 484.5,243.9 486.6,242.6 488.8,240.8 488.4,238.8 489.9,237.0 492.7,234.8 495.1,233.6 499.4,232.8 500.4,233.7 501.6,233.3 502.5,233.5 505.6,232.8 506.2,233.5 510.2,232.0 513.0,231.7 515.8,231.4 517.1,231.4 519.1,229.7 520.2,228.5 522.5,227.4 524.3,227.0 525.1,228.0 525.6,226.9 527.7,226.7 529.6,226.0 530.7,224.9 531.2,223.7 531.0,223.6 531.4,222.2 531.5,220.0 531.6,219.2 531.7,219.1 531.9,216.6 532.4,214.3 532.4,214.2 531.6,212.2 531.7,210.9 530.5,210.0 530.9,208.7 529.8,209.4 527.8,209.5 527.0,211.7 523.8,213.3 521.6,212.4 519.1,213.3 518.9,214.7 517.4,215.6 514.8,214.9 512.1,215.8 510.0,213.2 507.9,212.0 508.4,209.0 506.4,207.9 507.9,204.0 511.3,202.9 511.2,200.3 515.4,199.5 516.8,196.8 518.6,195.3 521.7,194.3 526.0,195.2 529.2,195.3 530.9,194.0 532.5,193.7 533.5,191.5 533.0,190.3 531.3,188.7 529.7,188.1 528.6,188.2 527.4,187.6 523.6,186.0 520.9,185.6 518.2,184.4 519.1,183.7 518.6,181.0 516.8,180.2 518.2,178.4 517.6,177.9 516.6,178.7 515.4,179.3 515.1,180.4 513.6,180.9 512.9,182.3 514.4,184.1 515.8,184.5 517.4,183.9 517.9,185.0 516.3,186.0 515.0,188.3 513.6,187.9 513.0,186.5 510.3,186.1 510.2,185.4 511.3,184.1 510.3,183.5 506.7,183.4 505.7,182.3 504.2,182.9 504.7,184.7 504.7,187.2 505.3,188.0 504.7,188.9 503.9,188.7 505.7,192.6 505.3,194.2 505.7,196.7 507.4,198.4 508.2,199.6 510.5,200.1 510.5,201.0 508.0,201.9 507.4,203.2 506.1,205.5 504.8,204.1 504.6,203.4 503.2,203.7 501.8,203.6 499.1,205.2 501.5,206.8 500.4,207.7 499.0,208.0 497.1,206.5 496.8,207.4 498.0,209.4 499.6,210.8 498.8,211.8 500.6,213.0 502.1,213.7 502.4,215.6 499.8,215.4 500.8,216.9 499.1,217.8 500.4,220.5 498.6,221.1 496.1,220.4 494.8,217.9 494.1,215.6 492.8,214.2 491.0,212.4 490.7,211.3 490.1,211.2 489.9,210.3 488.1,209.3 487.4,207.5 486.9,204.7 487.0,203.4 486.3,202.8 485.6,202.6 484.4,201.4 482.8,200.7 479.5,199.4 477.2,198.0 473.8,196.8 469.5,193.6 470.0,193.2 467.5,191.4 466.6,189.9 463.9,189.1 463.9,190.9 462.0,189.3 461.1,187.8 461.2,187.8 461.8,187.5 458.3,186.6 456.1,187.8 457.7,190.1 458.0,191.3 460.6,193.9 465.2,196.4 468.5,200.4 473.4,204.0 476.0,203.7 477.0,204.6 476.3,205.6 479.5,206.8 482.0,207.8 485.0,209.5 485.5,210.2 485.1,211.8 483.2,210.2 480.4,210.0 479.4,213.1 481.9,214.2 481.6,216.4 480.3,217.0 478.4,221.0 476.9,221.7 477.0,220.4 477.8,218.0 478.5,216.9 477.1,214.7 475.9,212.6 474.5,212.3 473.3,210.5 470.9,209.9 469.1,208.2 466.5,208.1 463.1,206.0 458.7,202.6 454.9,199.4 451.1,193.9 448.5,193.0 443.4,190.8 441.4,191.2 439.8,193.3 437.6,193.4 434.0,196.2 417.4,191.9 402.0,191.8 403.0,195.8 407.8,201.9 384.1,215.7 360.8,215.1 361.4,218.9 357.2,222.8 356.6,227.8 362.7,231.8 358.2,233.2 358.0,235.9 351.9,235.7 348.1,238.0 339.0,236.3 332.8,235.0 329.7,235.6 328.2,236.6 325.3,235.7 322.7,233.8 320.3,231.0 315.6,229.2 314.0,229.9 311.5,228.7 309.4,228.5 309.3,225.4 308.4,222.5 306.6,221.7 305.5,219.7 305.7,216.8 307.1,215.3 307.4,213.4 308.4,210.5 308.6,208.4 308.2,206.5 308.5,204.8 309.6,201.3 309.0,199.1 315.6,195.5 320.1,196.1 326.0,195.6 330.7,196.0 335.2,195.2 345.0,193.9 351.3,189.7 359.7,180.3 355.4,177.2 352.2,175.9 344.5,175.5 346.1,173.2 353.7,171.8 363.0,171.8 363.3,168.7 368.1,169.5 383.0,167.1 385.0,165.1 389.9,164.6 394.3,164.2 396.9,163.6 400.3,160.4 406.4,159.7 410.2,159.9 410.8,159.5 414.4,159.6 415.6,160.1 417.7,159.2 416.1,158.3 415.0,157.1 412.6,155.9 411.1,153.8 411.4,153.3 412.0,152.8 415.1,152.8 416.0,152.3 418.3,151.9 419.0,152.9 418.5,153.5 419.4,154.0 421.6,154.4 421.4,155.2 420.1,154.9 418.7,156.2 420.6,157.3 421.3,158.2 425.8,158.9 426.5,159.7 430.1,159.5 431.6,159.0 436.7,160.2 439.2,161.1 440.9,160.6 445.0,159.8 448.1,159.3 451.6,159.9 452.5,160.5 455.5,160.7 454.9,159.7 457.9,159.1 454.9,157.1 452.9,155.4 452.4,154.0 453.9,153.4 458.0,155.1 460.0,155.1 458.2,153.4 456.8,152.1 456.3,152.4 453.7,151.6 451.9,150.4 454.1,149.9 456.6,149.6 459.4,150.0 461.6,149.9 462.3,148.8 458.7,147.9 455.1,148.0 452.2,148.7 449.0,149.0 446.2,147.9 443.0,147.2 441.0,145.4 437.7,143.8 437.3,142.7 437.8,141.7 439.7,139.8 440.5,139.5 439.2,138.8 435.4,138.0 432.7,138.5 432.4,139.6 434.1,140.7 432.5,142.0 429.8,143.4 431.0,145.8 434.4,147.2 438.2,148.3 438.4,150.4 436.0,150.7 438.8,154.1 439.3,156.1 435.1,155.6 435.1,157.3 431.1,157.1 428.0,155.0 422.9,152.6 418.0,149.8 415.0,148.6 410.0,150.5 405.6,150.8 400.3,149.8 398.4,147.9 396.3,144.1 398.6,143.1 405.1,141.8 409.0,140.3 411.6,138.2 414.0,135.3 416.0,134.2 418.7,132.4 421.5,131.7 424.2,131.7 424.7,130.5 427.5,130.4 429.5,130.0 435.8,130.9 434.7,131.4 438.0,132.2 438.5,131.6 442.5,132.4 446.9,132.5 455.4,133.8 457.9,134.4 460.3,135.5 460.6,136.5 459.2,137.1 450.3,136.3 449.6,136.6 454.3,137.7 459.2,140.2 462.2,140.6 464.2,141.0 462.8,140.1 460.5,139.4 460.3,138.7 465.8,139.5 466.2,138.9 462.8,137.8 462.5,135.8 463.9,135.8 466.2,136.2 464.5,135.0 461.5,134.2 460.0,133.2 457.0,132.3 461.2,132.4 463.8,133.1 462.9,133.5 464.8,134.4 466.9,134.8 467.8,134.2 465.8,133.1 466.1,132.0 466.1,130.0 466.9,129.9 468.4,131.0 469.8,130.8 469.1,130.2 470.4,129.6 469.9,128.7 473.0,129.2 471.2,128.0 468.3,127.5 467.3,126.9 470.3,126.5 472.3,126.5 478.7,126.8 476.9,126.0 474.3,125.6 473.5,125.4 472.5,125.6 470.8,125.0 467.4,124.2 466.1,123.8 463.2,122.3 459.7,121.1 459.2,120.7 461.2,120.3 463.6,120.8 466.6,121.9 468.1,122.1 471.1,122.7 476.6,124.3 479.4,124.7 482.0,125.6 486.9,128.1 487.9,127.8 486.6,127.2 486.0,126.5 484.1,125.8 482.5,124.9 480.0,124.5 477.5,123.6 476.8,123.8 474.5,123.3 470.6,122.0 466.9,121.5 464.6,120.3 461.6,119.7 461.6,119.5 464.1,119.9 468.0,121.0 469.0,120.8 465.9,120.2 464.7,119.3 464.8,118.6 467.5,118.6 463.9,118.1 459.4,117.2 458.8,116.6 459.2,115.9 458.7,115.2 456.5,115.0 453.7,114.3 453.6,113.9 451.4,113.1 450.7,112.3 449.5,112.1 448.8,111.3 449.7,111.2 447.1,110.4 446.8,109.9 444.9,109.7 443.0,109.3 440.7,108.7 441.6,108.3 443.0,108.7 443.0,108.1" fill="#fff" opacity="0.08" stroke="#fff" stroke-width="0.3" stroke-opacity="0.1"/>
  <polygon points="545.1,186.6 547.2,187.8 547.9,187.6 548.8,187.9 547.8,188.8 549.0,190.7 549.4,191.7 549.3,192.5 550.1,193.7 551.8,195.1 553.5,194.7 555.3,195.2 557.5,194.3 559.1,192.3 558.9,191.7 557.4,190.3 555.7,187.9 554.1,187.9 553.1,186.1 552.2,186.6 550.8,184.5 552.4,184.3 552.8,182.8 550.8,182.1 549.2,181.1 548.8,182.3 550.2,184.0 548.5,182.8 547.9,182.3 547.3,181.2 546.3,180.6 544.2,180.7 541.7,179.0 540.4,178.8 539.7,178.0 541.1,177.6 539.4,175.9 540.0,175.0 541.4,174.7 539.2,172.5 537.5,171.2 536.5,172.0 534.9,172.0 534.6,173.7 534.0,174.7 534.8,176.4 533.9,177.4 534.9,180.4 538.2,182.1 539.5,183.8 543.4,185.8 545.1,186.6" fill="#fff" opacity="0.08" stroke="#fff" stroke-width="0.3" stroke-opacity="0.1"/>
  <polygon points="333.3,110.2 333.3,110.1 333.9,109.6 335.1,109.5 334.7,110.0 333.8,110.2 333.3,110.2" fill="#fff" opacity="0.08" stroke="#fff" stroke-width="0.3" stroke-opacity="0.1"/>
  <polygon points="338.5,106.2 338.1,105.8 340.0,105.4 340.8,105.6 340.7,106.0 339.5,106.3 338.5,106.2" fill="#fff" opacity="0.08" stroke="#fff" stroke-width="0.3" stroke-opacity="0.1"/>
  <polygon points="410.5,121.6 409.1,122.2 407.0,122.0 407.2,121.7 406.1,121.4 407.6,121.0 408.7,121.4 410.5,121.6" fill="#fff" opacity="0.08" stroke="#fff" stroke-width="0.3" stroke-opacity="0.1"/>
  <polygon points="341.8,106.4 341.5,106.1 342.1,105.7 342.7,105.7 343.4,106.0 343.1,106.1 341.8,106.4" fill="#fff" opacity="0.08" stroke="#fff" stroke-width="0.3" stroke-opacity="0.1"/>
  <polygon points="335.9,109.6 335.3,109.3 336.5,109.0 338.1,108.8 339.9,108.7 339.5,109.0 339.1,109.2 337.4,109.5 335.9,109.6" fill="#fff" opacity="0.08" stroke="#fff" stroke-width="0.3" stroke-opacity="0.1"/>
  <polygon points="337.9,108.5 336.1,108.7 336.9,108.3 338.7,107.9 339.5,107.4 340.4,107.5 341.7,107.3 343.3,107.2 342.2,107.7 340.1,108.3 337.9,108.5" fill="#fff" opacity="0.08" stroke="#fff" stroke-width="0.3" stroke-opacity="0.1"/>
  <polygon points="438.0,108.4 440.8,109.8 434.9,109.0 434.3,108.8 434.4,108.7 436.3,108.2 438.0,108.4" fill="#fff" opacity="0.08" stroke="#fff" stroke-width="0.3" stroke-opacity="0.1"/>
  <polygon points="401.6,119.8 405.6,120.5 404.0,121.1 404.6,122.0 404.0,122.2 404.6,123.2 403.4,123.3 400.4,122.7 400.9,122.2 399.1,121.9 396.4,120.9 395.1,120.0 397.1,119.5 397.9,119.9 399.1,119.9 399.0,119.5 400.1,119.4 401.6,119.8" fill="#fff" opacity="0.08" stroke="#fff" stroke-width="0.3" stroke-opacity="0.1"/>
  <polygon points="405.9,118.6 408.1,118.9 408.1,119.6 406.0,119.9 403.3,119.8 402.7,119.5 401.6,119.6 400.1,119.1 402.0,118.6 403.5,118.9 403.7,118.5 405.9,118.6" fill="#fff" opacity="0.08" stroke="#fff" stroke-width="0.3" stroke-opacity="0.1"/>
  <polygon points="421.0,116.4 420.8,116.7 420.7,116.9 421.2,117.1 421.1,117.4 419.7,117.2 419.0,116.9 417.7,117.0 418.1,116.7 418.8,116.5 419.9,116.8 419.3,116.5 419.2,116.2 420.6,116.3 421.0,116.4" fill="#fff" opacity="0.08" stroke="#fff" stroke-width="0.3" stroke-opacity="0.1"/>
  <polygon points="436.6,109.4 437.4,109.9 436.5,110.4 435.0,110.6 431.9,110.5 431.0,110.6 428.0,109.9 426.8,109.5 428.9,109.3 432.7,109.1 436.6,109.4" fill="#fff" opacity="0.08" stroke="#fff" stroke-width="0.3" stroke-opacity="0.1"/>
  <polygon points="342.0,110.9 340.5,111.2 339.3,111.1 336.1,111.0 335.9,110.6 336.7,110.1 338.6,109.8 340.2,109.7 341.2,109.8 341.4,109.4 343.0,109.1 345.0,108.9 346.8,108.9 348.0,109.0 348.2,109.1 349.3,109.0 349.3,109.4 346.8,109.7 345.8,110.1 344.9,110.5 342.0,110.9" fill="#fff" opacity="0.08" stroke="#fff" stroke-width="0.3" stroke-opacity="0.1"/>
  <polygon points="358.6,111.9 358.7,112.3 358.6,112.6 357.8,113.0 356.7,113.2 354.4,113.2 353.0,113.0 351.8,113.0 352.3,113.3 349.2,113.4 347.7,113.4 343.8,113.7 342.8,113.4 341.8,113.5 340.9,113.0 340.5,113.3 339.7,113.3 337.6,113.8 336.0,113.8 334.6,113.7 332.9,113.8 331.5,113.7 330.5,113.9 330.8,114.2 329.8,114.4 326.9,114.2 328.0,113.3 327.4,112.7 328.0,112.2 328.4,111.7 330.4,111.5 331.2,111.8 334.4,111.4 334.7,111.5 332.7,112.3 335.5,111.7 336.4,111.2 338.1,111.2 339.1,111.5 340.6,111.4 342.3,110.9 344.6,110.6 344.4,111.2 343.9,111.4 345.5,111.5 346.0,111.0 345.7,110.4 347.3,110.0 349.1,109.7 350.5,109.5 352.0,109.4 352.7,109.5 352.8,109.7 353.5,109.9 355.1,110.0 354.9,110.2 353.7,110.5 356.1,110.4 356.9,110.5 357.5,110.6 357.9,111.0 357.4,111.1 358.5,111.4 358.5,111.6 358.6,111.9" fill="#fff" opacity="0.08" stroke="#fff" stroke-width="0.3" stroke-opacity="0.1"/>
  <polygon points="373.3,115.0 374.7,116.1 373.0,116.4 370.7,116.3 367.7,116.1 367.4,116.3 369.6,116.4 370.5,116.9 372.3,116.7 372.1,117.1 370.2,117.7 372.6,117.4 376.3,117.2 377.9,117.5 377.8,118.0 373.9,118.7 373.1,118.9 370.4,118.9 372.0,119.1 369.8,119.9 367.9,120.6 365.8,121.9 365.7,122.8 364.1,122.8 361.8,123.1 362.6,123.8 361.1,124.9 359.7,124.9 359.4,126.1 356.6,126.1 357.1,126.7 355.9,127.1 353.8,127.2 352.1,127.2 352.0,128.2 351.0,128.8 349.4,128.1 348.1,128.4 349.2,128.8 349.5,129.7 348.2,130.9 345.1,131.1 345.0,130.5 344.8,129.6 343.5,130.6 340.4,131.2 344.1,131.5 346.0,131.6 339.7,132.8 333.5,133.8 328.3,134.1 326.7,134.0 324.1,134.4 318.8,136.0 313.6,136.8 312.5,136.8 310.0,137.0 307.4,137.2 304.2,138.0 301.8,139.2 298.9,140.3 294.1,141.3 291.9,142.8 288.5,144.3 284.5,146.0 282.7,145.7 283.9,143.7 281.8,143.1 282.8,141.8 285.6,140.0 288.5,137.4 290.5,136.1 293.7,134.7 296.1,132.9 299.1,131.9 299.9,131.2 305.1,129.8 307.7,129.6 309.6,129.2 312.7,128.1 310.5,128.3 309.5,128.4 308.3,128.4 308.7,127.6 311.3,126.7 313.7,126.1 314.3,126.3 314.8,127.1 316.0,125.9 316.7,125.3 315.5,125.2 316.0,124.7 320.3,123.9 321.4,123.3 323.7,122.3 327.3,120.9 328.2,120.2 329.9,119.7 331.1,118.6 330.6,118.1 329.5,117.6 328.5,117.1 329.5,116.6 331.8,115.7 333.7,116.0 334.5,116.4 334.6,115.3 335.9,114.5 337.6,114.3 340.4,114.6 343.3,114.9 345.0,114.7 345.8,114.0 347.7,113.8 351.5,113.8 352.3,113.9 354.1,113.5 355.8,113.6 357.3,113.8 358.3,114.2 357.4,114.5 360.4,114.3 359.9,114.9 360.2,115.1 359.9,115.6 360.9,114.9 362.4,114.5 365.7,114.2 366.9,114.5 368.6,114.3 370.2,114.4 373.3,115.0" fill="#fff" opacity="0.08" stroke="#fff" stroke-width="0.3" stroke-opacity="0.1"/>
</g>
<g stroke="#c8102e" stroke-width="0.35" opacity="0.15">
  <line x1="388" y1="210" x2="431.0" y2="173.7"/>
  <line x1="388" y1="210" x2="414.4" y2="166.0"/>
  <line x1="388" y1="210" x2="445.0" y2="168.2"/>
  <line x1="388" y1="210" x2="444.4" y2="176.4"/>
  <line x1="388" y1="210" x2="425.4" y2="170.5"/>
  <line x1="388" y1="210" x2="194.8" y2="307.9"/>
  <line x1="388" y1="210" x2="176.2" y2="297.8"/>
  <line x1="388" y1="210" x2="727.1" y2="226.4"/>
  <line x1="388" y1="210" x2="707.1" y2="145.7"/>
  <line x1="388" y1="210" x2="729.6" y2="188.1"/>
  <line x1="388" y1="210" x2="454.6" y2="177.5"/>
  <line x1="388" y1="210" x2="224.6" y2="304.3"/>
  <line x1="388" y1="210" x2="213.1" y2="300.6"/>
  <line x1="388" y1="210" x2="407.8" y2="165.8"/>
  <line x1="388" y1="210" x2="219.5" y2="164.5"/>
  <line x1="388" y1="210" x2="254.8" y2="103.0"/>
  <line x1="388" y1="210" x2="255.2" y2="102.7"/>
  <line x1="388" y1="210" x2="555.6" y2="107.5"/>
  <line x1="388" y1="210" x2="468.3" y2="187.1"/>
  <line x1="388" y1="210" x2="462.6" y2="185.7"/>
  <line x1="388" y1="210" x2="204.0" y2="161.3"/>
  <line x1="388" y1="210" x2="209.3" y2="161.5"/>
  <line x1="388" y1="210" x2="201.4" y2="161.4"/>
  <line x1="388" y1="210" x2="243.2" y2="104.4"/>
  <line x1="388" y1="210" x2="204.2" y2="145.6"/>
  <line x1="388" y1="210" x2="175.8" y2="147.6"/>
  <line x1="388" y1="210" x2="194.7" y2="162.6"/>
  <line x1="388" y1="210" x2="199.1" y2="156.8"/>
  <line x1="388" y1="210" x2="387.4" y2="169.8"/>
  <line x1="388" y1="210" x2="345.3" y2="174.2"/>
  <line x1="388" y1="210" x2="420.3" y2="183.9"/>
  <line x1="388" y1="210" x2="411.7" y2="180.7"/>
  <line x1="388" y1="210" x2="387.4" y2="169.8"/>
  <line x1="388" y1="210" x2="348.2" y2="161.2"/>
  <line x1="388" y1="210" x2="331.2" y2="141.1"/>
  <line x1="388" y1="210" x2="454.6" y2="191.5"/>
  <line x1="388" y1="210" x2="441.5" y2="185.6"/>
  <line x1="388" y1="210" x2="454.2" y2="187.5"/>
  <line x1="388" y1="210" x2="468.3" y2="223.0"/>
  <line x1="388" y1="210" x2="464.4" y2="204.9"/>
  <line x1="388" y1="210" x2="535.2" y2="92.4"/>
  <line x1="388" y1="210" x2="150.5" y2="159.9"/>
  <line x1="388" y1="210" x2="407.4" y2="163.5"/>
  <line x1="388" y1="210" x2="306.9" y2="220.1"/>
  <line x1="388" y1="210" x2="353.3" y2="158.3"/>
  <line x1="388" y1="210" x2="369.1" y2="162.2"/>
  <line x1="388" y1="210" x2="381.5" y2="163.0"/>
  <line x1="388" y1="210" x2="487.8" y2="183.8"/>
  <line x1="388" y1="210" x2="423.1" y2="152.1"/>
  <line x1="388" y1="210" x2="425.0" y2="149.1"/>
  <line x1="388" y1="210" x2="429.0" y2="176.7"/>
  <line x1="388" y1="210" x2="636.6" y2="173.1"/>
  <line x1="388" y1="210" x2="599.2" y2="124.2"/>
  <line x1="388" y1="210" x2="329.7" y2="216.2"/>
  <line x1="388" y1="210" x2="313.1" y2="197.6"/>
  <line x1="388" y1="210" x2="323.5" y2="196.9"/>
  <line x1="388" y1="210" x2="354.5" y2="226.3"/>
  <line x1="388" y1="210" x2="395.7" y2="229.0"/>
</g>
<g filter="url(#gl)">
  <circle cx="431.0" cy="173.7" r="2.5" fill="#e8475f" opacity="0.9"/>
  <circle cx="414.4" cy="166.0" r="2.5" fill="#e8475f" opacity="0.9"/>
  <circle cx="445.0" cy="168.2" r="2.5" fill="#e8475f" opacity="0.9"/>
  <circle cx="444.4" cy="176.4" r="2.5" fill="#e8475f" opacity="0.9"/>
  <circle cx="425.4" cy="170.5" r="2.5" fill="#e8475f" opacity="0.9"/>
  <circle cx="194.8" cy="307.9" r="2.5" fill="#e8475f" opacity="0.9"/>
  <circle cx="176.2" cy="297.8" r="2.5" fill="#e8475f" opacity="0.9"/>
  <circle cx="727.1" cy="226.4" r="2.5" fill="#e8475f" opacity="0.9"/>
  <circle cx="707.1" cy="145.7" r="2.5" fill="#e8475f" opacity="0.9"/>
  <circle cx="729.6" cy="188.1" r="2.5" fill="#e8475f" opacity="0.9"/>
  <circle cx="454.6" cy="177.5" r="2.5" fill="#e8475f" opacity="0.9"/>
  <circle cx="224.6" cy="304.3" r="2.5" fill="#e8475f" opacity="0.9"/>
  <circle cx="213.1" cy="300.6" r="2.5" fill="#e8475f" opacity="0.9"/>
  <circle cx="407.8" cy="165.8" r="2.5" fill="#e8475f" opacity="0.9"/>
  <circle cx="219.5" cy="164.5" r="2.5" fill="#e8475f" opacity="0.9"/>
  <circle cx="254.8" cy="103.0" r="2.5" fill="#e8475f" opacity="0.9"/>
  <circle cx="255.2" cy="102.7" r="2.5" fill="#e8475f" opacity="0.9"/>
  <circle cx="555.6" cy="107.5" r="2.5" fill="#e8475f" opacity="0.9"/>
  <circle cx="468.3" cy="187.1" r="2.5" fill="#e8475f" opacity="0.9"/>
  <circle cx="462.6" cy="185.7" r="2.5" fill="#e8475f" opacity="0.9"/>
  <circle cx="204.0" cy="161.3" r="2.5" fill="#e8475f" opacity="0.9"/>
  <circle cx="209.3" cy="161.5" r="2.5" fill="#e8475f" opacity="0.9"/>
  <circle cx="201.4" cy="161.4" r="2.5" fill="#e8475f" opacity="0.9"/>
  <circle cx="243.2" cy="104.4" r="2.5" fill="#e8475f" opacity="0.9"/>
  <circle cx="204.2" cy="145.6" r="2.5" fill="#e8475f" opacity="0.9"/>
  <circle cx="175.8" cy="147.6" r="2.5" fill="#e8475f" opacity="0.9"/>
  <circle cx="194.7" cy="162.6" r="2.5" fill="#e8475f" opacity="0.9"/>
  <circle cx="199.1" cy="156.8" r="2.5" fill="#e8475f" opacity="0.9"/>
  <circle cx="387.4" cy="169.8" r="2.5" fill="#e8475f" opacity="0.9"/>
  <circle cx="345.3" cy="174.2" r="2.5" fill="#e8475f" opacity="0.9"/>
  <circle cx="420.3" cy="183.9" r="2.5" fill="#e8475f" opacity="0.9"/>
  <circle cx="411.7" cy="180.7" r="2.5" fill="#e8475f" opacity="0.9"/>
  <circle cx="387.4" cy="169.8" r="2.5" fill="#e8475f" opacity="0.9"/>
  <circle cx="348.2" cy="161.2" r="2.5" fill="#e8475f" opacity="0.9"/>
  <circle cx="331.2" cy="141.1" r="2.5" fill="#e8475f" opacity="0.9"/>
  <circle cx="454.6" cy="191.5" r="2.5" fill="#e8475f" opacity="0.9"/>
  <circle cx="441.5" cy="185.6" r="2.5" fill="#e8475f" opacity="0.9"/>
  <circle cx="454.2" cy="187.5" r="2.5" fill="#e8475f" opacity="0.9"/>
  <circle cx="468.3" cy="223.0" r="2.5" fill="#e8475f" opacity="0.9"/>
  <circle cx="464.4" cy="204.9" r="2.5" fill="#e8475f" opacity="0.9"/>
  <circle cx="535.2" cy="92.4" r="2.5" fill="#e8475f" opacity="0.9"/>
  <circle cx="150.5" cy="159.9" r="2.5" fill="#e8475f" opacity="0.9"/>
  <circle cx="407.4" cy="163.5" r="2.5" fill="#e8475f" opacity="0.9"/>
  <circle cx="306.9" cy="220.1" r="2.5" fill="#e8475f" opacity="0.9"/>
  <circle cx="353.3" cy="158.3" r="2.5" fill="#e8475f" opacity="0.9"/>
  <circle cx="369.1" cy="162.2" r="2.5" fill="#e8475f" opacity="0.9"/>
  <circle cx="381.5" cy="163.0" r="2.5" fill="#e8475f" opacity="0.9"/>
  <circle cx="487.8" cy="183.8" r="2.5" fill="#e8475f" opacity="0.9"/>
  <circle cx="423.1" cy="152.1" r="2.5" fill="#e8475f" opacity="0.9"/>
  <circle cx="425.0" cy="149.1" r="2.5" fill="#e8475f" opacity="0.9"/>
  <circle cx="429.0" cy="176.7" r="2.5" fill="#e8475f" opacity="0.9"/>
  <circle cx="636.6" cy="173.1" r="2.5" fill="#e8475f" opacity="0.9"/>
  <circle cx="599.2" cy="124.2" r="2.5" fill="#e8475f" opacity="0.9"/>
  <circle cx="329.7" cy="216.2" r="2.5" fill="#e8475f" opacity="0.9"/>
  <circle cx="313.1" cy="197.6" r="2.5" fill="#e8475f" opacity="0.9"/>
  <circle cx="323.5" cy="196.9" r="2.5" fill="#e8475f" opacity="0.9"/>
  <circle cx="354.5" cy="226.3" r="2.5" fill="#e8475f" opacity="0.9"/>
  <circle cx="395.7" cy="229.0" r="2.5" fill="#e8475f" opacity="0.9"/>
</g>
<circle cx="388" cy="210" r="4.5" fill="#c8102e" filter="url(#gl)"/>
<circle cx="388" cy="210" r="11" fill="url(#pu)">
  <animate attributeName="r" values="6;13;6" dur="2.5s" repeatCount="indefinite"/>
  <animate attributeName="opacity" values="0.6;0.1;0.6" dur="2.5s" repeatCount="indefinite"/>
</circle>
<text x="388" y="201" text-anchor="middle" fill="#fff" font-size="7.5" font-family="Arial" font-weight="bold" opacity="0.95">BARCELONA</text>
<g fill="#fff" font-family="Arial" font-size="5.5" opacity="0.5">
  <text x="449.4" y="172.4" text-anchor="start">München</text>
  <text x="189.8" y="303.9" text-anchor="end">Buenos Aires</text>
  <text x="732.1" y="222.4" text-anchor="start">Melbourne</text>
  <text x="712.1" y="141.7" text-anchor="start">Brisbane</text>
  <text x="734.6" y="184.1" text-anchor="start">Sydney</text>
  <text x="219.6" y="300.3" text-anchor="end">Rio de Janeiro</text>
  <text x="250.2" y="98.7" text-anchor="end">Vancouver</text>
  <text x="560.6" y="103.5" text-anchor="start">Seoul</text>
  <text x="199.2" y="141.6" text-anchor="end">Chicago</text>
  <text x="326.2" y="137.1" text-anchor="end">Reykjavik</text>
  <text x="446.5" y="181.6" text-anchor="start">Milano</text>
  <text x="469.4" y="200.9" text-anchor="start">Roma</text>
  <text x="540.2" y="88.4" text-anchor="start">Tokyo</text>
  <text x="145.5" y="155.9" text-anchor="end">Ciudad de México</text>
  <text x="301.9" y="216.1" text-anchor="end">Lisboa</text>
</g>
</svg>